<svg width="15" height="15" viewBox="0 0 15 15" fill="none" xmlns="http://www.w3.org/2000/svg">
<path fill-rule="evenodd" clip-rule="evenodd" d="M15 15H11.918V9.75061C11.918 8.31137 11.3711 7.50708 10.2319 7.50708C8.99268 7.50708 8.34521 8.34407 8.34521 9.75061V15H5.375V5H8.34521V6.347C8.34521 6.347 9.23828 4.69449 11.3604 4.69449C13.4814 4.69449 15 5.98975 15 8.66862V15ZM1.83154 3.69058C0.819824 3.69058 0 2.86432 0 1.84529C0 0.826257 0.819824 0 1.83154 0C2.84326 0 3.6626 0.826257 3.6626 1.84529C3.6626 2.86432 2.84326 3.69058 1.83154 3.69058ZM0.297852 15H3.39502V5H0.297852V15Z" fill="#6D737E"/>
</svg>
