<svg width="162" height="92" viewBox="0 0 162 92" fill="none" xmlns="http://www.w3.org/2000/svg">
<g clip-path="url(#clip0_3304_998)">
<path d="M57.0955 57.272H9.89949V10.076H57.0955V57.272ZM33.4931 0.294098C15.057 0.294098 0.117615 15.2335 0.117615 33.6696C0.117615 52.1057 15.057 67.0451 33.4931 67.0451C51.9292 67.0451 66.8686 52.1057 66.8686 33.6696C66.8686 15.2335 51.9292 0.294098 33.4931 0.294098Z" fill="white"/>
<path d="M79.1593 20.7845H82.0528C83.8885 20.7845 85.2085 20.3998 86.0302 19.6306C86.8432 18.8788 87.2453 17.6112 87.2453 15.8367C87.2453 14.6129 87.0617 13.6688 86.6946 13.0044C86.3274 12.34 85.7942 11.8593 85.0861 11.5446C84.378 11.2211 83.2241 11.0638 81.6069 11.0638C80.5405 11.0638 79.8673 11.1599 79.5789 11.361C79.2991 11.5708 79.1593 11.9204 79.1593 12.4187V20.7845ZM72.6992 10.1109H83.2329C85.6106 10.1109 87.4288 10.6529 88.6789 11.7369C89.929 12.8034 90.5583 14.2195 90.5583 15.9591C90.5583 17.6987 89.9814 19.0449 88.8275 19.9453C87.2453 21.204 85.2872 21.8334 82.9531 21.8334H79.1505V29.124C79.1505 29.5436 79.2467 29.8495 79.4565 30.0331C79.7187 30.2604 80.0859 30.374 80.5405 30.374H82.9706V31.458H72.6992V30.374H74.8409C75.2693 30.374 75.5752 30.2953 75.785 30.1292C75.9773 29.9544 76.0735 29.7271 76.0735 29.4387V12.4187C76.0735 11.9904 75.9511 11.6757 75.6976 11.4834C75.4441 11.2911 74.972 11.1949 74.2727 11.1949H72.6992V10.1109Z" fill="white"/>
<path d="M92.5864 23.7653H98.452C98.8017 23.7653 99.0639 23.6517 99.265 23.4069C99.4485 23.1709 99.5534 22.7688 99.5534 22.2006C99.5534 21.1428 99.2213 20.2512 98.5656 19.5169C97.91 18.7651 97.132 18.3892 96.2316 18.3892C95.2263 18.3892 94.3784 18.8438 93.6878 19.7442C92.9885 20.6358 92.6213 21.982 92.6039 23.7653M102.29 24.7968H92.6039C92.6563 26.8599 93.0409 28.311 93.7577 29.1676C94.5795 30.1117 95.6284 30.5925 96.9222 30.5925C98.8017 30.5925 100.314 29.5173 101.459 27.3669L102.394 27.7777C100.987 30.5139 98.959 31.8688 96.3016 31.8688C94.492 31.8688 92.971 31.2219 91.7209 29.9194C90.4971 28.6082 89.8765 26.9298 89.8765 24.893C89.8765 22.6901 90.4796 20.9156 91.7035 19.5693C92.9185 18.2144 94.4221 17.5413 96.1967 17.5413C97.5079 17.5413 98.6443 17.8822 99.5972 18.5553C100.55 19.2197 101.267 20.19 101.748 21.4575C102.08 22.3404 102.263 23.4506 102.281 24.8056" fill="white"/>
<path d="M103.12 17.9347L107.989 17.6899V23.1622C108.505 21.3527 109.134 19.989 109.869 19.0711C110.594 18.1532 111.503 17.6899 112.587 17.6899C113.322 17.6899 113.899 17.9085 114.344 18.363C114.79 18.8001 114.991 19.3945 114.991 20.155C114.991 20.7582 114.851 21.2303 114.563 21.5799C114.266 21.9121 113.899 22.0782 113.444 22.0782C113.024 22.0782 112.666 21.9296 112.412 21.6499C112.141 21.3614 112.01 20.9768 112.01 20.4785C112.01 20.155 112.089 19.8666 112.238 19.5868C112.386 19.3333 112.456 19.1847 112.456 19.1323C112.456 18.9924 112.369 18.9137 112.185 18.9137C111.783 18.9137 111.337 19.141 110.839 19.6131C110.148 20.2599 109.606 21.1429 109.231 22.2618C108.654 24.0188 108.365 25.4175 108.365 26.4665V29.3775C108.365 29.7096 108.487 29.9544 108.715 30.1205C108.951 30.2953 109.335 30.374 109.895 30.374H111.617V31.458H103.208V30.374H104.554C105 30.374 105.34 30.2866 105.577 30.1205C105.804 29.9369 105.926 29.7271 105.926 29.4736V20.8544C105.926 20.1988 105.795 19.718 105.507 19.4208C105.236 19.1235 104.825 18.9662 104.309 18.9662H103.129V17.9347H103.12Z" fill="white"/>
<path d="M115.795 17.9347L120.664 17.6899V23.1622C121.18 21.3527 121.81 19.989 122.544 19.0711C123.269 18.1532 124.179 17.6899 125.254 17.6899C125.979 17.6899 126.565 17.9085 127.011 18.363C127.448 18.8001 127.667 19.3945 127.667 20.155C127.667 20.7582 127.518 21.2303 127.229 21.5799C126.941 21.9121 126.565 22.0782 126.128 22.0782C125.691 22.0782 125.341 21.9296 125.079 21.6499C124.808 21.3614 124.686 20.9768 124.686 20.4785C124.686 20.155 124.756 19.8666 124.913 19.5868C125.062 19.3333 125.131 19.1847 125.131 19.1323C125.131 18.9924 125.035 18.9137 124.852 18.9137C124.458 18.9137 124.013 19.141 123.506 19.6131C122.815 20.2599 122.282 21.1429 121.906 22.2618C121.329 24.0188 121.04 25.4175 121.04 26.4665V29.3775C121.04 29.7096 121.154 29.9544 121.39 30.1205C121.626 30.2953 122.019 30.374 122.579 30.374H124.301V31.458H115.9V30.374H117.247C117.692 30.374 118.042 30.2866 118.269 30.1205C118.505 29.9369 118.619 29.7271 118.619 29.4736V20.8544C118.619 20.1988 118.479 19.718 118.208 19.4208C117.928 19.1235 117.526 18.9662 117.002 18.9662H115.813V17.9347H115.795Z" fill="white"/>
<path d="M131.12 23.7653H136.985C137.335 23.7653 137.597 23.6517 137.789 23.4069C137.982 23.1709 138.087 22.7688 138.087 22.2006C138.087 21.1428 137.754 20.2512 137.09 19.5169C136.434 18.7651 135.656 18.3892 134.756 18.3892C133.751 18.3892 132.903 18.8438 132.203 19.7442C131.504 20.6358 131.137 21.982 131.12 23.7653ZM140.814 24.7968H131.12C131.163 26.8599 131.557 28.311 132.273 29.1676C133.095 30.1117 134.162 30.5925 135.438 30.5925C137.317 30.5925 138.838 29.5173 139.984 27.3669L140.928 27.7777C139.52 30.5139 137.492 31.8688 134.835 31.8688C133.025 31.8688 131.495 31.2219 130.263 29.9194C129.03 28.6082 128.401 26.9298 128.401 24.893C128.401 22.6901 129.013 20.9156 130.228 19.5693C131.443 18.2144 132.947 17.5413 134.721 17.5413C136.032 17.5413 137.16 17.8822 138.113 18.5553C139.066 19.2197 139.782 20.19 140.263 21.4575C140.604 22.3404 140.779 23.4506 140.805 24.8056" fill="white"/>
<path d="M101.573 49.6405C99.1339 49.9727 97.4031 50.5234 96.389 51.2752C95.6198 51.8522 95.2439 52.6739 95.2439 53.7403C95.2439 54.4746 95.4362 55.0603 95.8383 55.4624C96.2317 55.8908 96.7474 56.1006 97.3856 56.1006C98.522 56.1006 99.5011 55.6635 100.332 54.8068C101.162 53.9589 101.573 52.8662 101.573 51.5637V49.6318V49.6405ZM106.311 55.3313L106.835 56.1356C106.136 56.8611 105.349 57.2195 104.493 57.2195C103.837 57.2195 103.286 57.0447 102.84 56.695C102.395 56.3366 102.001 55.7072 101.652 54.8156C100.742 55.7684 99.9381 56.4153 99.2476 56.73C98.557 57.0534 97.7265 57.2195 96.7475 57.2195C95.3663 57.2195 94.3085 56.9223 93.583 56.3191C92.8574 55.7247 92.499 54.9642 92.499 54.0376C92.499 52.6302 93.3207 51.4675 94.9729 50.5322C96.6251 49.6056 98.8192 48.9849 101.555 48.6702V46.6159C101.555 45.8904 101.276 45.261 100.681 44.7452C100.087 44.2207 99.3525 43.9585 98.4433 43.9585C97.6041 43.9585 96.8873 44.1333 96.2841 44.483C95.8471 44.7452 95.6285 44.9987 95.6285 45.2435C95.6285 45.3921 95.7422 45.6106 95.9694 45.9253C96.2492 46.3012 96.389 46.6509 96.389 46.9569C96.389 47.3852 96.2492 47.7349 95.9694 48.0058C95.6897 48.2768 95.3226 48.4254 94.868 48.4254C94.4134 48.4254 93.9938 48.2506 93.6704 47.9272C93.3382 47.6037 93.1809 47.1841 93.1809 46.6684C93.1809 45.7155 93.7141 44.8501 94.7893 44.0546C95.8646 43.2679 97.2719 42.8745 99.0203 42.8745C100.62 42.8745 101.844 43.2242 102.7 43.9148C103.54 44.6141 103.968 45.4708 103.968 46.4673V53.8627C103.968 54.5184 104.064 54.9991 104.291 55.3051C104.501 55.6198 104.772 55.7859 105.104 55.7859C105.48 55.7859 105.874 55.6198 106.293 55.3138" fill="white"/>
<path d="M105.113 43.2941H111.774V44.2732C110.891 44.2907 110.323 44.3781 110.078 44.518C109.834 44.6578 109.711 44.8501 109.711 45.1211C109.711 45.3309 109.755 45.5495 109.86 45.7593L113.444 53.7491L116.713 46.004C116.757 45.8729 116.774 45.733 116.774 45.6107C116.774 44.9113 116.093 44.4743 114.703 44.2907V43.3116H120.306V44.2907C119.738 44.3519 119.283 44.518 118.942 44.754C118.61 45.0162 118.348 45.3397 118.164 45.768L113.208 57.2458H112.43L107.097 45.4533C106.905 45.0337 106.669 44.7452 106.407 44.5704C106.127 44.4043 105.699 44.3169 105.104 44.2994V43.3204L105.113 43.2941Z" fill="white"/>
<path d="M122.946 49.116H128.803C129.153 49.116 129.415 49.0111 129.607 48.7751C129.8 48.5303 129.896 48.1282 129.896 47.5688C129.896 46.511 129.564 45.6106 128.917 44.8589C128.252 44.1246 127.474 43.7487 126.583 43.7487C125.577 43.7487 124.729 44.1945 124.03 45.0861C123.331 45.9778 122.972 47.324 122.946 49.116ZM132.623 50.1563H122.946C122.99 52.2106 123.374 53.6704 124.1 54.5184C124.922 55.4624 125.971 55.9432 127.256 55.9432C129.135 55.9432 130.656 54.8768 131.801 52.7263L132.745 53.1372C131.329 55.8646 129.301 57.2283 126.644 57.2283C124.834 57.2283 123.305 56.5726 122.072 55.2701C120.831 53.9589 120.219 52.2805 120.219 50.2437C120.219 48.0496 120.822 46.275 122.046 44.9201C123.261 43.5738 124.756 42.892 126.539 42.892C127.85 42.892 128.987 43.2242 129.931 43.8973C130.892 44.5791 131.609 45.5407 132.09 46.7995C132.431 47.6824 132.606 48.8013 132.623 50.1563Z" fill="white"/>
<path d="M133.113 43.2766L137.99 43.0319V48.5041C138.506 46.7121 139.127 45.3396 139.861 44.4218C140.587 43.4952 141.496 43.0319 142.571 43.0319C143.305 43.0319 143.882 43.2591 144.319 43.6962C144.757 44.142 144.984 44.7452 144.984 45.497C144.984 46.1089 144.844 46.5722 144.547 46.9131C144.249 47.2453 143.874 47.4202 143.445 47.4202C143.017 47.4202 142.667 47.2715 142.388 46.9743C142.134 46.6771 142.003 46.3012 142.003 45.803C142.003 45.4883 142.082 45.191 142.23 44.9026C142.37 44.6578 142.449 44.5179 142.449 44.4655C142.449 44.3169 142.361 44.2382 142.169 44.2382C141.776 44.2382 141.33 44.4742 140.823 44.9463C140.141 45.5844 139.599 46.4761 139.232 47.6037C138.655 49.3521 138.366 50.7507 138.366 51.791V54.7019C138.366 55.0254 138.471 55.2789 138.707 55.445C138.952 55.6198 139.345 55.7072 139.896 55.7072H141.61V56.7912H133.2V55.7072H134.538C134.992 55.7072 135.333 55.6198 135.569 55.4362C135.796 55.2614 135.919 55.0516 135.919 54.8068V46.1876C135.919 45.532 135.779 45.0512 135.508 44.754C135.219 44.4567 134.826 44.2907 134.302 44.2907H133.113V43.2766Z" fill="white"/>
<path d="M72.708 35.4354H82.6297V36.5194H80.2608C79.8849 36.5194 79.6051 36.6155 79.4303 36.8166C79.2467 37.0089 79.1593 37.3236 79.1593 37.752V54.6145C79.1593 55.0254 79.273 55.3139 79.5002 55.48C79.7275 55.6548 80.1821 55.7335 80.8639 55.7335H83.8623C85.4533 55.7335 86.7645 55.2002 87.7786 54.1338C88.7926 53.0673 89.5269 51.2228 89.9989 48.6003H91.0042L90.5147 56.8174H72.708V55.7335H74.4563C75.0508 55.7335 75.4704 55.6198 75.7151 55.3925C75.9599 55.1653 76.0823 54.8069 76.0823 54.2998V37.6033C76.0823 37.2449 75.9774 36.9739 75.7763 36.7904C75.5753 36.6155 75.278 36.5194 74.8847 36.5194H72.7168V35.4354H72.708Z" fill="white"/>
<path d="M160.177 26.3529C160.098 27.7515 159.827 28.7393 159.364 29.3512C158.9 29.9544 158.35 30.2604 157.694 30.2604C157.143 30.2604 156.689 30.0593 156.339 29.6659C155.981 29.2638 155.806 28.6956 155.806 27.9351V19.1235H160.177V17.9434H155.806V12.4275H154.801C154.53 14.2807 154.084 15.8105 153.463 16.6759C152.711 17.7249 151.776 17.9434 150.648 17.9434H146.435V12.4275H145.429C145.159 14.2807 144.713 15.8105 144.092 16.6759C143.34 17.7249 142.405 18.2494 141.277 18.2494V19.1235H144.031V28.3372C144.031 29.325 144.346 30.1292 144.975 30.7412C145.604 31.3531 146.478 31.659 147.597 31.659C148.804 31.659 149.792 31.2219 150.552 30.3565C151.313 29.4911 151.723 28.1536 151.776 26.3529H150.814C150.736 27.7515 150.465 28.7393 150.001 29.3512C149.538 29.9544 148.987 30.2604 148.332 30.2604C147.781 30.2604 147.326 30.0593 146.977 29.6659C146.618 29.2638 146.444 28.6956 146.444 27.9351V19.1235H153.402V28.3372C153.402 29.325 153.717 30.1292 154.346 30.7412C154.975 31.3531 155.85 31.659 156.968 31.659C158.175 31.659 159.163 31.2219 159.923 30.3565C160.684 29.4911 161.094 28.1536 161.156 26.3529H160.185H160.177Z" fill="white"/>
<path d="M3.07227 86.4602L4.80312 90.8573C4.86431 91.0146 5.03914 91.1282 5.23145 91.1282H5.38006V91.373H3.46565V91.1282H3.61425C3.96392 91.1282 4.13001 91.0583 4.13001 90.9184C4.13001 90.8835 4.13001 90.8485 4.10379 90.8048L3.70167 89.782H1.796L1.54249 90.4027C1.51627 90.4814 1.49878 90.5513 1.49878 90.63C1.49878 90.9447 1.69984 91.1195 2.0495 91.1195H2.2156V91.3643H0.476013V91.1195H0.528463C0.808195 91.1195 1.07044 90.8922 1.21905 90.5338L2.85373 86.4515H3.07227V86.4602ZM1.9009 89.5285H3.60551L2.76632 87.3781L1.9009 89.5285Z" fill="white"/>
<path d="M9.13017 86.5564L10.5988 90.359L11.945 86.5564H13.5971V86.8012H13.1863C12.9066 86.8012 12.8279 86.8711 12.8279 87.0809V90.8923C12.8279 91.0584 12.9503 91.1283 13.2562 91.1283H13.5971V91.3731H11.3855V91.1283H11.7964C12.0149 91.1283 12.1373 91.0409 12.1373 90.8923V86.8187H12.1198L10.5201 91.3731H10.3016L8.58819 86.8274H8.57071V90.3153C8.57071 90.8049 8.85918 91.1108 9.34871 91.1283V91.3731H7.53046V91.1283C7.99376 91.1196 8.30846 90.8136 8.30846 90.3678V87.0285C8.30846 86.8799 8.19482 86.8012 7.9588 86.8012H7.53046V86.5564H9.13892H9.13017Z" fill="white"/>
<path d="M19.8649 86.5564L19.9698 88.2261H19.7512C19.6813 87.7977 19.6289 87.6142 19.5152 87.4044C19.4453 87.2645 19.3579 87.1509 19.2442 87.046C19.0781 86.8886 18.8421 86.8012 18.5886 86.8012H17.6358C17.5309 86.8012 17.4172 86.9148 17.4172 87.046V88.7681H17.8368C18.3001 88.7681 18.5886 88.4097 18.5974 87.8065H18.8159V90.0356H18.5974V89.9482C18.5974 89.3887 18.2739 89.0041 17.7931 89.0041H17.4172V90.9185C17.4172 91.0496 17.5309 91.137 17.7232 91.137H18.5012C18.6673 91.137 18.9033 91.0933 19.0519 91.0321C19.2792 90.936 19.4628 90.7699 19.6114 90.5164C19.76 90.2541 19.8387 89.9919 19.8999 89.5548H20.1271L20.0397 91.3905H16.0448V91.1458H16.377C16.613 91.1458 16.7266 91.0671 16.7266 90.8835V87.0809C16.7266 86.9148 16.6217 86.8274 16.4469 86.8274H16.0448V86.5827H19.8561L19.8649 86.5564Z" fill="white"/>
<path d="M24.8039 86.5564C25.7131 86.5564 26.3162 87.0197 26.3162 87.7278C26.3162 88.1387 26.1327 88.4534 25.7655 88.6719C25.5382 88.803 25.3634 88.8555 24.8914 88.9079H24.7777V88.9254C24.7777 88.9254 24.8039 88.9254 24.8476 88.9341C25.1798 89.0303 25.276 89.074 25.4858 89.2226C25.6956 89.4237 25.7917 89.6247 25.8879 90.0269C25.9054 90.088 25.9054 90.0968 25.9141 90.123V90.1667C25.9141 90.1667 25.9491 90.2454 25.9578 90.2978C26.089 90.7874 26.1939 90.9622 26.3425 90.9622C26.5086 90.9622 26.6047 90.7611 26.6309 90.3503C26.6309 90.3241 26.6309 90.3153 26.6309 90.3066H26.8495C26.8058 91.0409 26.5348 91.408 26.0015 91.408C25.7655 91.408 25.5732 91.3119 25.4596 91.1283C25.311 90.9098 25.2498 90.665 25.2061 90.2279C25.1623 89.7646 25.1449 89.6772 25.005 89.3887C24.8214 89.1177 24.5679 89.0041 24.1571 89.0041H23.7637V90.9272C23.7637 91.0409 23.8948 91.1196 24.0696 91.1196H24.5329V91.3643H22.3038V91.1196H22.7759C22.9682 91.1196 23.0731 91.0321 23.0731 90.8923V87.046C23.0731 86.8886 22.9682 86.8012 22.7671 86.8012H22.3038V86.5564H24.7865H24.8039ZM24.3494 88.7681C25.1623 88.7681 25.5732 88.4534 25.5732 87.8065C25.5732 87.4393 25.4858 87.1683 25.3197 87.011C25.1798 86.8711 25.0137 86.8187 24.6641 86.8012H24.0522C23.8948 86.8012 23.7812 86.9061 23.7812 87.0372V88.7681H24.3494Z" fill="white"/>
<path d="M31.0891 86.5564V86.8012H30.6608C30.4597 86.8012 30.3199 86.8799 30.3199 87.011V90.8923C30.3199 91.0409 30.4248 91.1196 30.6258 91.1196H31.0891V91.3643H28.8688V91.1196H29.3321C29.5331 91.1196 29.638 91.0496 29.638 90.8923V87.0285C29.638 86.8886 29.5157 86.8012 29.2971 86.8012H28.8688V86.5564H31.0891Z" fill="white"/>
<path d="M37.0685 86.469H37.2695L37.3482 88.4096H37.1297C37.051 88.1037 37.0073 87.9988 36.9373 87.8239C36.8412 87.5792 36.7363 87.3956 36.5964 87.2208C36.3342 86.8886 36.002 86.7225 35.5999 86.7225C35.1278 86.7225 34.7257 87.011 34.5159 87.4743C34.3411 87.8764 34.2449 88.4621 34.2449 89.0827C34.2449 90.4639 34.7694 91.2332 35.7135 91.2244C36.273 91.2244 36.7101 90.9709 36.981 90.4814C37.1034 90.2629 37.1471 90.1055 37.2258 89.7209H37.4531C37.4094 90.0793 37.3744 90.2192 37.2608 90.4727C37.1559 90.6912 37.0335 90.8748 36.8936 91.0146C36.5877 91.3118 36.1069 91.5042 35.6523 91.5042C34.4023 91.5042 33.4319 90.4552 33.4319 89.109C33.4319 87.6491 34.3935 86.4865 35.5824 86.4865C35.8621 86.4865 36.1244 86.5477 36.3691 86.67C36.509 86.7487 36.5964 86.8012 36.8237 86.9585L37.051 86.4952L37.0685 86.469Z" fill="white"/>
<path d="M42.2522 86.4602L43.983 90.8573C44.0442 91.0146 44.2191 91.1282 44.4114 91.1282H44.56V91.373H42.6456V91.1282H42.7942C43.1439 91.1282 43.3099 91.0583 43.3099 90.9184C43.3099 90.8835 43.3099 90.8485 43.2837 90.8048L42.8816 89.782H40.9847L40.7312 90.4027C40.7049 90.4814 40.6875 90.5513 40.6875 90.63C40.6875 90.9447 40.8885 91.1195 41.2382 91.1195H41.3955V91.3643H39.6559V91.1195H39.7084C39.9881 91.1195 40.2504 90.8922 40.399 90.5338L42.0337 86.4515H42.2522V86.4602ZM41.0808 89.5285H42.7854L41.9462 87.3781L41.0808 89.5285Z" fill="white"/>
<path d="M49.6651 86.4952H49.9011L49.9186 88.261H49.7001C49.6214 87.9201 49.5689 87.7977 49.4553 87.5617C49.3679 87.3956 49.2717 87.2557 49.1668 87.1421C48.9133 86.8711 48.5637 86.7137 48.2227 86.7137C47.6458 86.7137 47.2262 87.0809 47.2262 87.5879C47.2262 87.9288 47.3835 88.1736 47.707 88.3222C47.8468 88.3834 48.0479 88.4446 48.4238 88.5145C48.9046 88.6107 49.0095 88.6456 49.3329 88.768C49.6127 88.8991 49.735 88.9778 49.8662 89.1177C50.0847 89.345 50.1809 89.6072 50.1809 89.9656C50.1809 90.7961 49.499 91.4692 48.6511 91.4692C48.3626 91.4692 48.1091 91.4255 47.8731 91.3293C47.6545 91.2506 47.5496 91.172 47.3223 90.9709L46.9552 91.4255H46.7192V89.5635H46.9465C46.9902 89.817 47.0164 89.9132 47.1388 90.1579C47.2612 90.4202 47.3923 90.6125 47.5321 90.7611C47.8206 91.0583 48.214 91.2244 48.6249 91.2244C49.2542 91.2244 49.7263 90.8048 49.7263 90.2454C49.7263 89.9307 49.5602 89.6771 49.2368 89.5111C49.0619 89.4236 48.9833 89.3974 48.4937 89.2925C47.9867 89.1876 47.8906 89.1526 47.5846 89.039C47.3311 88.9254 47.2349 88.8642 47.1038 88.7418C46.8853 88.5233 46.7716 88.2348 46.7716 87.8764C46.7716 87.0721 47.401 86.4427 48.1965 86.4427C48.4063 86.4427 48.5986 86.4865 48.7909 86.5564C49.0095 86.6438 49.1144 86.7137 49.3591 86.9235L49.6476 86.4952H49.6651Z" fill="white"/>
<path d="M62.5765 86.4602L64.3073 90.8573C64.3685 91.0146 64.5433 91.1282 64.7357 91.1282H64.8843V91.373H62.9698V91.1282H63.1185C63.4681 91.1282 63.6342 91.0583 63.6342 90.9184C63.6342 90.8835 63.6342 90.8485 63.608 90.8048L63.2059 89.782H61.3089L61.0554 90.4027C61.0292 90.4814 61.0117 90.5513 61.0117 90.63C61.0117 90.9447 61.2128 91.1195 61.5624 91.1195H61.7285V91.3643H59.989V91.1195H60.0414C60.3211 91.1195 60.5834 90.8922 60.732 90.5338L62.3667 86.4515H62.5852L62.5765 86.4602ZM61.4051 89.5285H63.1097L62.2705 87.3781L61.4051 89.5285Z" fill="white"/>
<path d="M69.9806 86.4952H70.2167L70.2341 88.261H70.0156C69.9369 87.9201 69.8845 87.7977 69.7708 87.5617C69.6834 87.3956 69.5873 87.2557 69.4824 87.1421C69.2289 86.8711 68.8792 86.7137 68.5383 86.7137C67.9613 86.7137 67.5417 87.0809 67.5417 87.5879C67.5417 87.9288 67.6991 88.1736 68.0225 88.3222C68.1624 88.3834 68.3634 88.4446 68.7393 88.5145C69.2201 88.6107 69.3163 88.6456 69.6485 88.768C69.9282 88.8991 70.0506 88.9778 70.1817 89.1177C70.4002 89.345 70.4964 89.6072 70.4964 89.9656C70.4964 90.7961 69.8145 91.4692 68.9754 91.4692C68.6869 91.4692 68.4334 91.4255 68.1974 91.3293C67.9788 91.2506 67.8739 91.172 67.6466 90.9709L67.2795 91.4255H67.0435V89.5635H67.2707C67.3144 89.817 67.3407 89.9132 67.4631 90.1579C67.5854 90.4202 67.7166 90.6125 67.8564 90.7611C68.1449 91.0583 68.5383 91.2244 68.9491 91.2244C69.5785 91.2244 70.0506 90.8048 70.0506 90.2454C70.0506 89.9307 69.8845 89.6771 69.561 89.5111C69.3862 89.4236 69.3075 89.3974 68.818 89.2925C68.311 89.1876 68.2148 89.1526 67.9176 89.039C67.6641 88.9254 67.568 88.8642 67.4368 88.7418C67.2096 88.5233 67.1046 88.2348 67.1046 87.8764C67.1046 87.0721 67.734 86.4427 68.5295 86.4427C68.7393 86.4427 68.9317 86.4865 69.124 86.5564C69.3425 86.6438 69.4474 86.7137 69.6922 86.9235L69.9806 86.4952Z" fill="white"/>
<path d="M74.8934 86.5564V86.8012H74.4651C74.264 86.8012 74.1241 86.8799 74.1241 87.011V90.8923C74.1241 91.0409 74.229 91.1196 74.4301 91.1196H74.8934V91.3643H72.673V91.1196H73.1363C73.3374 91.1196 73.4423 91.0496 73.4423 90.8923V87.0285C73.4423 86.8886 73.3199 86.8012 73.1014 86.8012H72.673V86.5564H74.8934Z" fill="white"/>
<path d="M79.5177 86.4602L81.2486 90.8573C81.3098 91.0146 81.4846 91.1282 81.6769 91.1282H81.8255V91.373H79.9111V91.1282H80.0597C80.4094 91.1282 80.5755 91.0583 80.5755 90.9184C80.5755 90.8835 80.5755 90.8485 80.5493 90.8048L80.1471 89.782H78.2502L78.0054 90.4027C77.9792 90.4814 77.9617 90.5513 77.9617 90.63C77.9617 90.9447 78.1628 91.1195 78.5125 91.1195H78.6786V91.3643H76.939V91.1195H76.9914C77.2712 91.1195 77.5334 90.8922 77.682 90.5338L79.3167 86.4515H79.5352L79.5177 86.4602ZM78.3464 89.5285H80.051L79.2118 87.3781L78.3464 89.5285Z" fill="white"/>
<path d="M89.7368 86.5564C90.7333 86.5564 91.3802 87.0634 91.3802 87.8502C91.3802 88.6369 90.7333 89.1964 89.7368 89.1964H88.7839V90.8398C88.7839 91.0321 88.8888 91.1196 89.0986 91.1196H89.6406V91.3643H87.3416V91.1196H87.8223C87.9972 91.1196 88.1021 91.0409 88.1021 90.9098V87.0634C88.1021 86.8711 87.9972 86.8012 87.7 86.8012H87.3416V86.5564H89.728H89.7368ZM89.4658 88.9604C89.8679 88.9604 90.2001 88.8642 90.3662 88.6894C90.5322 88.5233 90.6284 88.2173 90.6284 87.8764C90.6284 87.5005 90.5497 87.2295 90.3749 87.0634C90.2088 86.8974 90.034 86.8362 89.6319 86.8099H89.0549C88.8888 86.8099 88.7839 86.9148 88.7839 87.0897V88.9691H89.457L89.4658 88.9604Z" fill="white"/>
<path d="M95.3051 86.4602L97.0359 90.8573C97.0971 91.0146 97.272 91.1282 97.4643 91.1282H97.6129V91.373H95.6985V91.1282H95.8471C96.1967 91.1282 96.3628 91.0583 96.3628 90.9184C96.3628 90.8835 96.3628 90.8485 96.3366 90.8048L95.9345 89.782H94.0376L93.7928 90.4027C93.7666 90.4814 93.7491 90.5513 93.7491 90.63C93.7491 90.9447 93.9501 91.1195 94.2998 91.1195H94.4659V91.3643H92.7263V91.1195H92.7788C93.0585 91.1195 93.3207 90.8922 93.4694 90.5338L95.104 86.4515H95.3226L95.3051 86.4602ZM94.1337 89.5285H95.8383L94.9991 87.3781L94.1337 89.5285Z" fill="white"/>
<path d="M103.085 86.469H103.286L103.365 88.4096H103.146C103.068 88.1037 103.024 87.9988 102.954 87.8239C102.858 87.5792 102.753 87.3956 102.613 87.2208C102.351 86.8886 102.019 86.7225 101.617 86.7225C101.144 86.7225 100.742 87.011 100.533 87.4743C100.358 87.8764 100.262 88.4621 100.262 89.0827C100.262 90.4639 100.786 91.2332 101.73 91.2244C102.29 91.2244 102.735 90.9709 102.998 90.4814C103.12 90.2629 103.164 90.1055 103.242 89.7209H103.47C103.426 90.0793 103.391 90.2192 103.277 90.4727C103.173 90.6912 103.05 90.8748 102.91 91.0146C102.604 91.3118 102.124 91.5042 101.669 91.5042C100.419 91.5042 99.4486 90.4552 99.4486 89.109C99.4486 87.6491 100.41 86.4865 101.599 86.4865C101.879 86.4865 102.141 86.5477 102.386 86.67C102.526 86.7487 102.613 86.8012 102.84 86.9585L103.068 86.4952L103.085 86.469Z" fill="white"/>
<path d="M107.937 86.5564V86.8012H107.508C107.307 86.8012 107.168 86.8799 107.168 87.011V90.8923C107.168 91.0409 107.272 91.1196 107.473 91.1196H107.937V91.3643H105.716V91.1196H106.18C106.381 91.1196 106.486 91.0496 106.486 90.8923V87.0285C106.486 86.8886 106.363 86.8012 106.145 86.8012H105.716V86.5564H107.937Z" fill="white"/>
<path d="M114.135 86.5564L114.196 88.2261H113.977C113.872 87.5967 113.759 87.3082 113.54 87.0897C113.348 86.8886 113.077 86.8012 112.675 86.8012H111.888C111.774 86.8012 111.669 86.9061 111.669 87.0197V88.7506H112.072C112.561 88.7506 112.841 88.4097 112.85 87.8065H113.086V90.0181H112.85C112.85 89.6335 112.771 89.3975 112.631 89.2314C112.509 89.0915 112.299 88.9953 112.107 88.9953H111.669V90.8311C111.669 91.0409 111.766 91.1283 112.01 91.1283H112.517V91.3731H110.21V91.1283H110.664C110.856 91.1283 110.979 91.0496 110.979 90.936V87.0547C110.979 86.8799 110.891 86.8099 110.647 86.8099H110.21V86.5652H114.143L114.135 86.5564Z" fill="white"/>
<path d="M118.418 86.5564V86.8012H117.99C117.789 86.8012 117.649 86.8799 117.649 87.011V90.8923C117.649 91.0409 117.754 91.1196 117.955 91.1196H118.418V91.3643H116.198V91.1196H116.661C116.862 91.1196 116.967 91.0496 116.967 90.8923V87.0285C116.967 86.8886 116.844 86.8012 116.617 86.8012H116.189V86.5564H118.409H118.418Z" fill="white"/>
<path d="M124.397 86.469H124.598L124.677 88.4096H124.458C124.38 88.1037 124.336 87.9988 124.266 87.8239C124.17 87.5792 124.065 87.3956 123.925 87.2208C123.663 86.8886 123.331 86.7225 122.929 86.7225C122.457 86.7225 122.054 87.011 121.845 87.4743C121.67 87.8764 121.574 88.4621 121.574 89.0827C121.574 90.4639 122.098 91.2332 123.042 91.2244C123.602 91.2244 124.039 90.9709 124.31 90.4814C124.432 90.2629 124.476 90.1055 124.554 89.7209H124.782C124.738 90.0793 124.703 90.2192 124.589 90.4727C124.485 90.6912 124.362 90.8748 124.222 91.0146C123.916 91.3118 123.436 91.5042 122.981 91.5042C121.731 91.5042 120.761 90.4552 120.761 89.109C120.761 87.6491 121.722 86.4865 122.911 86.4865C123.191 86.4865 123.453 86.5477 123.698 86.67C123.838 86.7487 123.916 86.8012 124.152 86.9585L124.38 86.4952L124.397 86.469Z" fill="white"/>
<path d="M138.48 86.5564L138.585 88.2261H138.366C138.305 87.7977 138.244 87.6142 138.13 87.4044C138.052 87.2645 137.964 87.1509 137.859 87.046C137.693 86.8886 137.457 86.8012 137.204 86.8012H136.251C136.146 86.8012 136.032 86.9148 136.032 87.046V88.7681H136.452C136.915 88.7681 137.204 88.4097 137.212 87.8065H137.431V90.0356H137.212V89.9482C137.212 89.3887 136.889 89.0041 136.408 89.0041H136.032V90.9185C136.032 91.0496 136.146 91.137 136.338 91.137H137.116C137.282 91.137 137.518 91.0933 137.667 91.0321C137.894 90.936 138.078 90.7699 138.226 90.5164C138.375 90.2541 138.454 89.9919 138.515 89.5548H138.742L138.655 91.3905H134.669V91.1458H135.001C135.237 91.1458 135.35 91.0671 135.35 90.8835V87.0809C135.35 86.9148 135.246 86.8274 135.071 86.8274H134.669V86.5827H138.48V86.5564Z" fill="white"/>
<path d="M142.658 86.5564L144.127 90.359L145.473 86.5564H147.125V86.8012H146.715C146.435 86.8012 146.356 86.8711 146.356 87.0809V90.8923C146.356 91.0584 146.479 91.1283 146.785 91.1283H147.125V91.3731H144.914V91.1283H145.325C145.543 91.1283 145.674 91.0409 145.674 90.8923V86.8187H145.657L144.057 91.3731H143.839L142.125 86.8274H142.116V90.3153C142.116 90.8049 142.405 91.1108 142.895 91.1283V91.3731H141.068V91.1283C141.531 91.1196 141.846 90.8136 141.846 90.3678V87.0285C141.846 86.8799 141.732 86.8012 141.496 86.8012H141.068V86.5564H142.676H142.658Z" fill="white"/>
<path d="M153.402 86.5564L153.507 88.2261H153.288C153.218 87.7977 153.166 87.6142 153.052 87.4044C152.974 87.2645 152.895 87.1509 152.781 87.046C152.615 86.8886 152.379 86.8012 152.126 86.8012H151.173C151.068 86.8012 150.954 86.9148 150.954 87.046V88.7681H151.374C151.837 88.7681 152.126 88.4097 152.134 87.8065H152.353V90.0356H152.134V89.9482C152.134 89.3887 151.811 89.0041 151.33 89.0041H150.954V90.9185C150.954 91.0496 151.068 91.137 151.26 91.137H152.038C152.204 91.137 152.44 91.0933 152.589 91.0321C152.816 90.936 153 90.7699 153.148 90.5164C153.297 90.2541 153.376 89.9919 153.437 89.5548H153.664L153.577 91.3905H149.591V91.1458H149.923C150.159 91.1458 150.272 91.0671 150.272 90.8835V87.0809C150.272 86.9148 150.168 86.8274 149.993 86.8274H149.591V86.5827H153.402V86.5564Z" fill="white"/>
<path d="M158.411 86.4602L160.142 90.8573C160.203 91.0146 160.378 91.1282 160.57 91.1282H160.719V91.373H158.804V91.1282H158.953C159.302 91.1282 159.469 91.0583 159.469 90.9184C159.469 90.8835 159.469 90.8485 159.442 90.8048L159.04 89.782H157.143L156.899 90.4027C156.872 90.4814 156.855 90.5513 156.855 90.63C156.855 90.9447 157.056 91.1195 157.406 91.1195H157.572V91.3643H155.832V91.1195H155.884C156.164 91.1195 156.426 90.8922 156.575 90.5338L158.21 86.4515H158.428L158.411 86.4602ZM157.239 89.5285H158.944L158.105 87.3781L157.239 89.5285Z" fill="white"/>
</g>
<defs>
<clipPath id="clip0_3304_998">
<rect width="161.029" height="91.1926" fill="white" transform="translate(0.117615 0.294098)"/>
</clipPath>
</defs>
</svg>
