<svg width="120" height="68" viewBox="0 0 120 68" fill="none" xmlns="http://www.w3.org/2000/svg">
<path d="M45.6574 48.535H17.3398V19.8199H45.6574V48.535ZM31.496 13.8684C20.4344 13.8684 11.4707 22.9579 11.4707 34.1748C11.4707 45.3917 20.4344 54.4811 31.496 54.4811C42.5577 54.4811 51.5213 45.3917 51.5213 34.1748C51.5213 22.9579 42.5577 13.8684 31.496 13.8684Z" fill="black"/>
<path d="M58.8958 26.3352H60.6319C61.7333 26.3352 62.5253 26.1012 63.0184 25.6331C63.5061 25.1757 63.7474 24.4045 63.7474 23.3249C63.7474 22.5803 63.6373 22.0059 63.417 21.6016C63.1967 21.1974 62.8767 20.9049 62.4519 20.7134C62.0271 20.5166 61.3347 20.4209 60.3644 20.4209C59.7245 20.4209 59.3207 20.4794 59.1476 20.6017C58.9797 20.7294 58.8958 20.9421 58.8958 21.2453V26.3352ZM55.0198 19.8412H61.34C62.7666 19.8412 63.8576 20.1709 64.6076 20.8304C65.3576 21.4793 65.7353 22.3409 65.7353 23.3993C65.7353 24.4577 65.3891 25.2768 64.6968 25.8246C63.7474 26.5905 62.5725 26.9734 61.1721 26.9734H58.8906V31.4091C58.8906 31.6644 58.9483 31.8506 59.0741 31.9622C59.2315 32.1005 59.4518 32.1697 59.7245 32.1697H61.1826V32.8292H55.0198V32.1697H56.3048C56.5618 32.1697 56.7454 32.1218 56.8712 32.0208C56.9866 31.9144 57.0443 31.7761 57.0443 31.6006V21.2453C57.0443 20.9847 56.9709 20.7932 56.8188 20.6762C56.6667 20.5592 56.3835 20.5007 55.9639 20.5007H55.0198V19.8412Z" fill="black"/>
<path d="M66.9521 28.1488H70.4715C70.6813 28.1488 70.8386 28.0797 70.9593 27.9308C71.0694 27.7872 71.1324 27.5425 71.1324 27.1968C71.1324 26.5533 70.9331 26.0108 70.5397 25.564C70.1463 25.1066 69.6795 24.8779 69.1393 24.8779C68.5361 24.8779 68.0273 25.1545 67.613 25.7023C67.1934 26.2448 66.9731 27.0638 66.9626 28.1488M72.774 28.7764H66.9626C66.9941 30.0316 67.2249 30.9145 67.6549 31.4357C68.148 32.0101 68.7774 32.3026 69.5536 32.3026C70.6813 32.3026 71.5887 31.6485 72.2758 30.3401L72.837 30.5901C71.9925 32.2548 70.7757 33.0792 69.1812 33.0792C68.0955 33.0792 67.1829 32.6856 66.4329 31.8931C65.6986 31.0953 65.3262 30.0742 65.3262 28.8349C65.3262 27.4946 65.6881 26.415 66.4224 25.5959C67.1514 24.7715 68.0536 24.362 69.1183 24.362C69.905 24.362 70.5869 24.5694 71.1586 24.979C71.7303 25.3832 72.1604 25.9735 72.4488 26.7447C72.6482 27.2819 72.7583 27.9574 72.7688 28.7817" fill="black"/>
<path d="M73.2722 24.6013L76.1937 24.4524V27.7818C76.5031 26.6809 76.8808 25.8512 77.3213 25.2927C77.7567 24.7343 78.3021 24.4524 78.9525 24.4524C79.3931 24.4524 79.7393 24.5854 80.0068 24.8619C80.2743 25.1279 80.3949 25.4895 80.3949 25.9522C80.3949 26.3192 80.311 26.6064 80.1379 26.8192C79.9596 27.0213 79.7393 27.1223 79.4665 27.1223C79.2148 27.1223 78.9997 27.0319 78.8476 26.8617C78.685 26.6862 78.6064 26.4522 78.6064 26.149C78.6064 25.9522 78.6536 25.7767 78.7427 25.6065C78.8319 25.4523 78.8738 25.3619 78.8738 25.33C78.8738 25.2449 78.8214 25.197 78.7113 25.197C78.47 25.197 78.2025 25.3353 77.9035 25.6225C77.4892 26.0161 77.164 26.5532 76.9385 27.234C76.5923 28.3031 76.4192 29.154 76.4192 29.7923V31.5633C76.4192 31.7655 76.4926 31.9144 76.629 32.0154C76.7706 32.1218 77.0014 32.1697 77.3371 32.1697H78.3703V32.8292H73.3247V32.1697H74.1324C74.3999 32.1697 74.6044 32.1165 74.7461 32.0154C74.8824 31.9037 74.9559 31.7761 74.9559 31.6219V26.3777C74.9559 25.9788 74.8772 25.6863 74.7041 25.5055C74.5415 25.3246 74.295 25.2289 73.9855 25.2289H73.2775V24.6013H73.2722Z" fill="black"/>
<path d="M80.8774 24.6013L83.7989 24.4524V27.7818C84.1083 26.6809 84.486 25.8512 84.9266 25.2927C85.3619 24.7343 85.9074 24.4524 86.5525 24.4524C86.9878 24.4524 87.3392 24.5854 87.6067 24.8619C87.869 25.1279 88.0001 25.4895 88.0001 25.9522C88.0001 26.3192 87.911 26.6064 87.7379 26.8192C87.5648 27.0213 87.3392 27.1223 87.077 27.1223C86.8147 27.1223 86.6049 27.0319 86.4476 26.8617C86.285 26.6862 86.2116 26.4522 86.2116 26.149C86.2116 25.9522 86.2535 25.7767 86.3479 25.6065C86.4371 25.4523 86.4791 25.3619 86.4791 25.33C86.4791 25.2449 86.4214 25.197 86.3112 25.197C86.0752 25.197 85.8077 25.3353 85.5035 25.6225C85.0891 26.0161 84.7692 26.5532 84.5437 27.234C84.1975 28.3031 84.0244 29.154 84.0244 29.7923V31.5633C84.0244 31.7655 84.0926 31.9144 84.2342 32.0154C84.3758 32.1218 84.6119 32.1697 84.9475 32.1697H85.9808V32.8292H80.9404V32.1697H81.7481C82.0156 32.1697 82.2254 32.1165 82.3618 32.0154C82.5034 31.9037 82.5716 31.7761 82.5716 31.6219V26.3777C82.5716 25.9788 82.4876 25.6863 82.3251 25.5055C82.1572 25.3246 81.9159 25.2289 81.6013 25.2289H80.8879V24.6013H80.8774Z" fill="black"/>
<path d="M90.0719 28.1488H93.5912C93.801 28.1488 93.9584 28.0797 94.0738 27.9308C94.1892 27.7872 94.2521 27.5425 94.2521 27.1968C94.2521 26.5533 94.0528 26.0108 93.6542 25.564C93.2608 25.1066 92.794 24.8779 92.2538 24.8779C91.6506 24.8779 91.1418 25.1545 90.7222 25.7023C90.3026 26.2448 90.0824 27.0638 90.0719 28.1488ZM95.8885 28.7764H90.0719C90.0981 30.0316 90.3341 30.9145 90.7642 31.4357C91.2572 32.0101 91.8971 32.3026 92.6629 32.3026C93.7905 32.3026 94.7032 31.6485 95.3903 30.3401L95.9567 30.5901C95.1123 32.2548 93.8954 33.0792 92.301 33.0792C91.2153 33.0792 90.2974 32.6856 89.5579 31.8931C88.8183 31.0953 88.4407 30.0742 88.4407 28.8349C88.4407 27.4946 88.8078 26.415 89.5369 25.5959C90.2659 24.7715 91.1681 24.362 92.2328 24.362C93.0195 24.362 93.6961 24.5694 94.2678 24.979C94.8395 25.3832 95.2696 25.9735 95.5581 26.7447C95.7627 27.2819 95.8676 27.9574 95.8833 28.7817" fill="black"/>
<path d="M72.3439 43.8919C70.8806 44.094 69.8421 44.429 69.2337 44.8864C68.7721 45.2375 68.5466 45.7374 68.5466 46.3863C68.5466 46.833 68.662 47.1894 68.9032 47.434C69.1393 47.6946 69.4487 47.8223 69.8316 47.8223C70.5134 47.8223 71.1009 47.5564 71.5992 47.0351C72.0974 46.5192 72.3439 45.8544 72.3439 45.0619V43.8865V43.8919ZM75.1867 47.3543L75.5014 47.8436C75.0818 48.285 74.6098 48.5031 74.0958 48.5031C73.7024 48.5031 73.372 48.3967 73.1045 48.184C72.837 47.9659 72.6009 47.583 72.3911 47.0405C71.8457 47.6202 71.3631 48.0138 70.9488 48.2052C70.5344 48.402 70.0362 48.5031 69.4487 48.5031C68.62 48.5031 67.9854 48.3222 67.55 47.9553C67.1147 47.5936 66.8997 47.1309 66.8997 46.5671C66.8997 45.7108 67.3927 45.0034 68.384 44.4344C69.3753 43.8706 70.6918 43.493 72.3334 43.3015V42.0516C72.3334 41.6102 72.1656 41.2272 71.809 40.9134C71.4523 40.5943 71.0117 40.4348 70.4662 40.4348C69.9627 40.4348 69.5326 40.5411 69.1707 40.7539C68.9085 40.9134 68.7774 41.0677 68.7774 41.2166C68.7774 41.307 68.8455 41.44 68.9819 41.6315C69.1498 41.8602 69.2337 42.0729 69.2337 42.259C69.2337 42.5197 69.1498 42.7324 68.9819 42.8973C68.8141 43.0622 68.5938 43.1526 68.321 43.1526C68.0483 43.1526 67.7965 43.0462 67.6025 42.8494C67.4032 42.6526 67.3088 42.3973 67.3088 42.0835C67.3088 41.5038 67.6287 40.9773 68.2738 40.4933C68.919 40.0146 69.7634 39.7753 70.8124 39.7753C71.7722 39.7753 72.5065 39.988 73.0205 40.4082C73.5241 40.8337 73.7811 41.3549 73.7811 41.9612V46.4607C73.7811 46.8596 73.8388 47.1521 73.9751 47.3383C74.101 47.5298 74.2636 47.6308 74.4629 47.6308C74.6884 47.6308 74.9245 47.5298 75.1762 47.3436" fill="black"/>
<path d="M74.4681 40.0305H78.4648V40.6262C77.9351 40.6368 77.5941 40.69 77.4473 40.7751C77.3004 40.8602 77.227 40.9772 77.227 41.1421C77.227 41.2697 77.2532 41.4027 77.3162 41.5304L79.4666 46.3915L81.4282 41.6793C81.4544 41.5995 81.4649 41.5144 81.4649 41.4399C81.4649 41.0145 81.0558 40.7485 80.2219 40.6368V40.0412H83.5839V40.6368C83.243 40.6741 82.9702 40.7751 82.7657 40.9187C82.5664 41.0783 82.409 41.2751 82.2989 41.5357L79.325 48.519H78.8582L75.6587 41.3442C75.5434 41.0889 75.4017 40.9134 75.2444 40.807C75.0766 40.706 74.8195 40.6528 74.4629 40.6422V40.0465L74.4681 40.0305Z" fill="black"/>
<path d="M85.1677 43.5727H88.6818C88.8916 43.5727 89.049 43.5089 89.1644 43.3653C89.2797 43.2164 89.3374 42.9717 89.3374 42.6313C89.3374 41.9878 89.1381 41.44 88.75 40.9826C88.3514 40.5358 87.8846 40.3071 87.3496 40.3071C86.7464 40.3071 86.2377 40.5784 85.8181 41.1209C85.3985 41.6634 85.1834 42.4824 85.1677 43.5727ZM90.9739 44.2056H85.1677C85.1939 45.4555 85.4247 46.3437 85.86 46.8596C86.353 47.434 86.9824 47.7265 87.7535 47.7265C88.8811 47.7265 89.7938 47.0777 90.4808 45.7693L91.0473 46.0193C90.1976 47.6787 88.9808 48.5084 87.3863 48.5084C86.3006 48.5084 85.3827 48.1095 84.6432 47.317C83.8984 46.5192 83.5312 45.4981 83.5312 44.2588C83.5312 42.9239 83.8932 41.8442 84.6274 41.0198C85.3565 40.2007 86.2534 39.7859 87.3234 39.7859C88.1101 39.7859 88.792 39.988 89.3584 40.3975C89.9354 40.8124 90.3655 41.3974 90.6539 42.1633C90.8585 42.7005 90.9634 43.3813 90.9739 44.2056Z" fill="black"/>
<path d="M91.2678 40.0199L94.1945 39.871V43.2004C94.504 42.1101 94.8764 41.2751 95.3169 40.7166C95.7523 40.1529 96.2978 39.871 96.9429 39.871C97.3835 39.871 97.7296 40.0093 97.9919 40.2752C98.2541 40.5464 98.3905 40.9134 98.3905 41.3708C98.3905 41.7431 98.3066 42.025 98.1282 42.2324C97.9499 42.4345 97.7244 42.5409 97.4674 42.5409C97.2104 42.5409 97.0006 42.4505 96.8327 42.2697C96.6806 42.0888 96.602 41.8601 96.602 41.557C96.602 41.3655 96.6492 41.1847 96.7383 41.0091C96.8223 40.8602 96.8695 40.7751 96.8695 40.7432C96.8695 40.6528 96.817 40.6049 96.7016 40.6049C96.4656 40.6049 96.1981 40.7485 95.8939 41.0357C95.4848 41.424 95.1596 41.9665 94.9393 42.6526C94.5931 43.7163 94.42 44.5673 94.42 45.2002V46.9713C94.42 47.1681 94.483 47.3223 94.6246 47.4234C94.7715 47.5297 95.0075 47.5829 95.3379 47.5829H96.3659V48.2424H91.3203V47.5829H92.1228C92.3955 47.5829 92.6 47.5297 92.7417 47.418C92.878 47.3117 92.9515 47.184 92.9515 47.0351V41.791C92.9515 41.3921 92.8675 41.0996 92.7049 40.9187C92.5319 40.7379 92.2958 40.6368 91.9811 40.6368H91.2678V40.0199Z" fill="black"/>
<path d="M55.0249 35.2491H60.9779V35.9086H59.5566C59.331 35.9086 59.1632 35.9672 59.0583 36.0895C58.9481 36.2065 58.8957 36.398 58.8957 36.6586V46.9181C58.8957 47.1681 58.9639 47.3436 59.1002 47.4447C59.2366 47.551 59.5094 47.5989 59.9185 47.5989H61.7175C62.6721 47.5989 63.4588 47.2745 64.0672 46.6256C64.6757 45.9767 65.1162 44.8545 65.3995 43.2589H66.0026L65.7089 48.2584H55.0249V47.5989H56.0739C56.4306 47.5989 56.6823 47.5298 56.8292 47.3915C56.976 47.2532 57.0495 47.0351 57.0495 46.7267V36.5682C57.0495 36.3501 56.9865 36.1852 56.8659 36.0735C56.7453 35.9672 56.5669 35.9086 56.3309 35.9086H55.0301V35.2491H55.0249Z" fill="black"/>
<path d="M107.506 29.7231C107.459 30.5741 107.296 31.1751 107.018 31.5474C106.74 31.9144 106.41 32.1005 106.017 32.1005C105.686 32.1005 105.413 31.9782 105.204 31.7389C104.989 31.4942 104.884 31.1485 104.884 30.6858V25.3246H107.506V24.6066H104.884V21.2506H104.28C104.118 22.3782 103.85 23.3089 103.478 23.8354C103.027 24.4737 102.466 24.6066 101.789 24.6066H99.261V21.2506H98.6579C98.4953 22.3782 98.2278 23.3089 97.8554 23.8354C97.4043 24.4737 96.8431 24.7928 96.1665 24.7928V25.3246H97.8187V30.9304C97.8187 31.5314 98.0075 32.0207 98.3851 32.3931C98.7628 32.7654 99.2873 32.9515 99.9586 32.9515C100.682 32.9515 101.275 32.6856 101.731 32.159C102.188 31.6325 102.434 30.8187 102.466 29.7231H101.889C101.842 30.5741 101.679 31.1751 101.401 31.5474C101.123 31.9144 100.793 32.1005 100.399 32.1005C100.069 32.1005 99.796 31.9782 99.5862 31.7389C99.3712 31.4942 99.2663 31.1485 99.2663 30.6858V25.3246H103.441V30.9304C103.441 31.5314 103.63 32.0207 104.008 32.3931C104.385 32.7654 104.91 32.9515 105.581 32.9515C106.305 32.9515 106.898 32.6856 107.354 32.159C107.81 31.6325 108.057 30.8187 108.094 29.7231H107.511H107.506Z" fill="black"/>
</svg>
