<svg width="136" height="78" viewBox="0 0 136 78" fill="none" xmlns="http://www.w3.org/2000/svg">
<g clip-path="url(#clip0_3370_1108)">
<path d="M47.9203 48.5793H8.27561V8.88497H47.9203V48.5793ZM28.0943 0.657898C12.608 0.657898 0.0588379 13.2227 0.0588379 28.7285C0.0588379 44.2342 12.608 56.799 28.0943 56.799C43.5806 56.799 56.1297 44.2342 56.1297 28.7285C56.1297 13.2227 43.5806 0.657898 28.0943 0.657898Z" fill="black"/>
<path d="M66.4539 17.8914H68.8844C70.4265 17.8914 71.5352 17.5679 72.2255 16.9209C72.9084 16.2886 73.2462 15.2225 73.2462 13.73C73.2462 12.7007 73.092 11.9067 72.7835 11.3479C72.4751 10.7892 72.0272 10.3848 71.4324 10.1201C70.8377 9.84809 69.8684 9.71575 68.5099 9.71575C67.6141 9.71575 67.0487 9.79663 66.8064 9.96573C66.5714 10.1422 66.4539 10.4363 66.4539 10.8553V17.8914ZM61.0275 8.91437H69.8757C71.873 8.91437 73.4004 9.3702 74.4504 10.2819C75.5004 11.1788 76.0291 12.3699 76.0291 13.833C76.0291 15.296 75.5445 16.4283 74.5752 17.1856C73.2462 18.2443 71.6013 18.7736 69.6408 18.7736H66.4466V24.9053C66.4466 25.2582 66.5273 25.5156 66.7036 25.6699C66.9239 25.8611 67.2323 25.9567 67.6141 25.9567H69.6554V26.8684H61.0275V25.9567H62.8265C63.1863 25.9567 63.4433 25.8905 63.6195 25.7508C63.7811 25.6038 63.8618 25.4126 63.8618 25.17V10.8553C63.8618 10.4951 63.759 10.2304 63.5461 10.0687C63.3332 9.90691 62.9366 9.82604 62.3492 9.82604H61.0275V8.91437Z" fill="black"/>
<path d="M77.7327 20.3984H82.6598C82.9535 20.3984 83.1738 20.3029 83.3427 20.097C83.4969 19.8985 83.585 19.5603 83.585 19.0824C83.585 18.1928 83.306 17.4429 82.7553 16.8253C82.2045 16.193 81.551 15.8769 80.7947 15.8769C79.9503 15.8769 79.238 16.2592 78.6579 17.0164C78.0705 17.7664 77.7621 18.8986 77.7474 20.3984M85.8834 21.266H77.7474C77.7914 23.0011 78.1145 24.2216 78.7166 24.9421C79.4069 25.7361 80.288 26.1405 81.3748 26.1405C82.9535 26.1405 84.2239 25.2362 85.1858 23.4275L85.9715 23.7731C84.7893 26.0743 83.0857 27.2139 80.8534 27.2139C79.3334 27.2139 78.0558 26.6698 77.0057 25.5744C75.9777 24.4715 75.4564 23.0599 75.4564 21.3469C75.4564 19.4941 75.963 18.0016 76.991 16.8694C78.0117 15.7298 79.2747 15.1637 80.7653 15.1637C81.8668 15.1637 82.8214 15.4504 83.6217 16.0165C84.4221 16.5753 85.0242 17.3914 85.4281 18.4575C85.7071 19.2 85.8613 20.1338 85.876 21.2733" fill="black"/>
<path d="M86.5809 15.4946L90.671 15.2887V19.8912C91.1042 18.3693 91.6329 17.2223 92.2497 16.4503C92.8592 15.6784 93.6228 15.2887 94.5334 15.2887C95.1502 15.2887 95.6348 15.4725 96.0093 15.8548C96.3838 16.2224 96.5527 16.7224 96.5527 17.362C96.5527 17.8693 96.4352 18.2663 96.1929 18.5604C95.9432 18.8398 95.6348 18.9795 95.253 18.9795C94.9005 18.9795 94.5994 18.8545 94.3865 18.6192C94.1589 18.3766 94.0487 18.0531 94.0487 17.634C94.0487 17.362 94.1148 17.1194 94.2396 16.8841C94.3645 16.6709 94.4232 16.5459 94.4232 16.5018C94.4232 16.3842 94.3498 16.318 94.1956 16.318C93.8578 16.318 93.4833 16.5092 93.0648 16.9062C92.4847 17.4502 92.0294 18.1928 91.7137 19.1339C91.229 20.6117 90.9867 21.788 90.9867 22.6703V25.1185C90.9867 25.3979 91.0895 25.6038 91.2804 25.7435C91.4787 25.8905 91.8018 25.9567 92.2717 25.9567H93.7183V26.8684H86.6544V25.9567H87.7852C88.1597 25.9567 88.446 25.8832 88.6443 25.7435C88.8352 25.5891 88.938 25.4126 88.938 25.1994V17.9502C88.938 17.3988 88.8279 16.9944 88.5856 16.7444C88.3579 16.4945 88.0128 16.3621 87.5796 16.3621H86.5883V15.4946H86.5809Z" fill="black"/>
<path d="M97.2283 15.4946L101.318 15.2887V19.8912C101.752 18.3693 102.28 17.2223 102.897 16.4503C103.507 15.6784 104.27 15.2887 105.173 15.2887C105.783 15.2887 106.275 15.4725 106.649 15.8548C107.016 16.2224 107.2 16.7224 107.2 17.362C107.2 17.8693 107.075 18.2663 106.833 18.5604C106.591 18.8398 106.275 18.9795 105.908 18.9795C105.541 18.9795 105.247 18.8545 105.026 18.6192C104.799 18.3766 104.696 18.0531 104.696 17.634C104.696 17.362 104.755 17.1194 104.887 16.8841C105.012 16.6709 105.071 16.5459 105.071 16.5018C105.071 16.3842 104.99 16.318 104.836 16.318C104.505 16.318 104.131 16.5092 103.705 16.9062C103.125 17.4502 102.677 18.1928 102.361 19.1339C101.876 20.6117 101.634 21.788 101.634 22.6703V25.1185C101.634 25.3979 101.73 25.6038 101.928 25.7435C102.126 25.8905 102.456 25.9567 102.926 25.9567H104.373V26.8684H97.3164V25.9567H98.4472C98.8217 25.9567 99.1154 25.8832 99.3063 25.7435C99.5046 25.5891 99.6 25.4126 99.6 25.1994V17.9502C99.6 17.3988 99.4826 16.9944 99.2549 16.7444C99.02 16.4945 98.6822 16.3621 98.2416 16.3621H97.243V15.4946H97.2283Z" fill="black"/>
<path d="M110.1 20.3984H115.028C115.321 20.3984 115.542 20.3029 115.703 20.097C115.865 19.8985 115.953 19.5603 115.953 19.0824C115.953 18.1928 115.674 17.4429 115.116 16.8253C114.565 16.193 113.911 15.8769 113.155 15.8769C112.311 15.8769 111.598 16.2592 111.011 17.0164C110.424 17.7664 110.115 18.8986 110.1 20.3984ZM118.244 21.266H110.1C110.137 23.0011 110.468 24.2216 111.07 24.9421C111.76 25.7361 112.656 26.1405 113.728 26.1405C115.307 26.1405 116.584 25.2362 117.546 23.4275L118.339 23.7731C117.157 26.0743 115.453 27.2139 113.221 27.2139C111.701 27.2139 110.416 26.6698 109.381 25.5744C108.345 24.4715 107.817 23.0599 107.817 21.3469C107.817 19.4941 108.331 18.0016 109.351 16.8694C110.372 15.7298 111.635 15.1637 113.126 15.1637C114.227 15.1637 115.174 15.4504 115.975 16.0165C116.775 16.5753 117.377 17.3914 117.781 18.4575C118.068 19.2 118.214 20.1338 118.236 21.2733" fill="black"/>
<path d="M85.2812 42.1609C83.2325 42.4402 81.7786 42.9034 80.9269 43.5357C80.2807 44.0209 79.9649 44.7121 79.9649 45.609C79.9649 46.2266 80.1265 46.7192 80.4643 47.0574C80.7947 47.4176 81.2279 47.5941 81.764 47.5941C82.7185 47.5941 83.541 47.2265 84.2385 46.506C84.9361 45.7928 85.2812 44.8738 85.2812 43.7783V42.1535V42.1609ZM89.2611 46.9471L89.7017 47.6235C89.1143 48.2337 88.4534 48.5352 87.7338 48.5352C87.1831 48.5352 86.7205 48.3881 86.346 48.094C85.9715 47.7926 85.641 47.2633 85.3473 46.5133C84.5837 47.3147 83.9081 47.8588 83.328 48.1235C82.7479 48.3955 82.0503 48.5352 81.2279 48.5352C80.0677 48.5352 79.1792 48.2852 78.5698 47.7779C77.9603 47.278 77.6592 46.6383 77.6592 45.859C77.6592 44.6753 78.3495 43.6975 79.7373 42.9108C81.1251 42.1314 82.9682 41.6094 85.2665 41.3448V39.617C85.2665 39.0068 85.0316 38.4774 84.5323 38.0436C84.0329 37.6025 83.4161 37.3819 82.6525 37.3819C81.9475 37.3819 81.3454 37.529 80.8387 37.8231C80.4716 38.0436 80.288 38.2569 80.288 38.4627C80.288 38.5877 80.3835 38.7715 80.5744 39.0362C80.8094 39.3523 80.9269 39.6464 80.9269 39.9037C80.9269 40.264 80.8094 40.5581 80.5744 40.786C80.3394 41.0139 80.031 41.1389 79.6492 41.1389C79.2673 41.1389 78.9149 40.9919 78.6432 40.7198C78.3642 40.4478 78.232 40.0949 78.232 39.6611C78.232 38.8597 78.6799 38.1319 79.5831 37.4628C80.4863 36.8011 81.6685 36.4703 83.1371 36.4703C84.4809 36.4703 85.5089 36.7644 86.2285 37.3452C86.9334 37.9334 87.2932 38.6539 87.2932 39.492V45.7119C87.2932 46.2634 87.374 46.6677 87.5649 46.9251C87.7411 47.1897 87.9688 47.3294 88.2478 47.3294C88.5635 47.3294 88.894 47.1897 89.2464 46.9324" fill="black"/>
<path d="M88.2551 36.8232H93.8505V37.6466C93.1088 37.6613 92.6316 37.7349 92.426 37.8525C92.2203 37.9701 92.1175 38.1319 92.1175 38.3598C92.1175 38.5362 92.1543 38.72 92.2424 38.8965L95.253 45.6164L97.9993 39.1024C98.036 38.9921 98.0507 38.8744 98.0507 38.7715C98.0507 38.1833 97.4779 37.8157 96.3104 37.6613V36.8379H101.017V37.6613C100.54 37.7128 100.158 37.8525 99.8717 38.051C99.5927 38.2716 99.3724 38.5436 99.2182 38.9038L95.0547 48.5572H94.4012L89.922 38.6392C89.7605 38.2863 89.5622 38.0436 89.3419 37.8966C89.1069 37.7569 88.7471 37.6834 88.2478 37.6687V36.8452L88.2551 36.8232Z" fill="black"/>
<path d="M103.235 41.7197H108.155C108.448 41.7197 108.669 41.6315 108.83 41.433C108.992 41.2271 109.072 40.8889 109.072 40.4184C109.072 39.5288 108.793 38.7715 108.25 38.1392C107.692 37.5216 107.038 37.2055 106.289 37.2055C105.445 37.2055 104.733 37.5805 104.145 38.3304C103.558 39.0803 103.257 40.2125 103.235 41.7197ZM111.363 42.5946H103.235C103.272 44.3224 103.595 45.5502 104.204 46.2634C104.894 47.0574 105.775 47.4618 106.855 47.4618C108.434 47.4618 109.711 46.5648 110.673 44.7562L111.466 45.1017C110.277 47.3956 108.573 48.5425 106.341 48.5425C104.821 48.5425 103.536 47.9911 102.5 46.8956C101.458 45.7928 100.944 44.3812 100.944 42.6682C100.944 40.8228 101.45 39.3303 102.478 38.1907C103.499 37.0585 104.755 36.485 106.253 36.485C107.354 36.485 108.309 36.7644 109.102 37.3305C109.91 37.904 110.512 38.7127 110.916 39.7714C111.202 40.514 111.349 41.455 111.363 42.5946Z" fill="black"/>
<path d="M111.775 36.8085L115.872 36.6026V41.2051C116.305 39.6979 116.827 38.5436 117.443 37.7716C118.053 36.9923 118.817 36.6026 119.72 36.6026C120.337 36.6026 120.821 36.7938 121.188 37.1614C121.555 37.5363 121.746 38.0436 121.746 38.6759C121.746 39.1906 121.629 39.5802 121.379 39.867C121.13 40.1463 120.814 40.2934 120.454 40.2934C120.094 40.2934 119.801 40.1684 119.566 39.9184C119.353 39.6685 119.242 39.3523 119.242 38.9332C119.242 38.6686 119.309 38.4186 119.433 38.176C119.551 37.9701 119.617 37.8525 119.617 37.8084C119.617 37.6834 119.544 37.6172 119.382 37.6172C119.052 37.6172 118.677 37.8157 118.251 38.2127C117.678 38.7494 117.223 39.4994 116.915 40.4478C116.43 41.9182 116.188 43.0946 116.188 43.9695V46.4177C116.188 46.6898 116.276 46.903 116.474 47.0427C116.68 47.1897 117.01 47.2632 117.473 47.2632H118.912V48.1749H111.848V47.2632H112.972C113.353 47.2632 113.64 47.1897 113.838 47.0353C114.029 46.8883 114.132 46.7118 114.132 46.506V39.2567C114.132 38.7053 114.014 38.301 113.787 38.051C113.544 37.801 113.214 37.6613 112.773 37.6613H111.775V36.8085Z" fill="black"/>
<path d="M61.0348 30.2136H69.3691V31.1253H67.3791C67.0634 31.1253 66.8284 31.2062 66.6815 31.3753C66.5273 31.537 66.4539 31.8017 66.4539 32.1619V46.3443C66.4539 46.6898 66.5494 46.9324 66.7403 47.0721C66.9312 47.2192 67.313 47.2853 67.8858 47.2853H70.4044C71.7408 47.2853 72.8423 46.8369 73.6941 45.9399C74.5458 45.0429 75.1627 43.4916 75.5592 41.286H76.4036L75.9924 48.197H61.0348V47.2853H62.5034C63.0027 47.2853 63.3552 47.1898 63.5608 46.9986C63.7664 46.8075 63.8692 46.506 63.8692 46.0796V32.037C63.8692 31.7355 63.7811 31.5076 63.6122 31.3532C63.4433 31.2062 63.1936 31.1253 62.8632 31.1253H61.0421V30.2136H61.0348Z" fill="black"/>
<path d="M134.508 22.5747C134.442 23.751 134.215 24.5818 133.826 25.0965C133.436 25.6038 132.974 25.8611 132.423 25.8611C131.96 25.8611 131.579 25.692 131.285 25.3611C130.984 25.0229 130.837 24.545 130.837 23.9054V16.4944H134.508V15.5019H130.837V10.8627H129.993C129.765 12.4213 129.39 13.708 128.869 14.4358C128.238 15.3181 127.452 15.5019 126.505 15.5019H122.965V10.8627H122.121C121.893 12.4213 121.519 13.708 120.997 14.4358C120.366 15.3181 119.58 15.7592 118.633 15.7592V16.4944H120.946V24.2436C120.946 25.0744 121.21 25.7508 121.739 26.2655C122.268 26.7801 123.002 27.0374 123.942 27.0374C124.955 27.0374 125.785 26.6698 126.424 25.942C127.063 25.2141 127.408 24.0892 127.452 22.5747H126.644C126.578 23.751 126.35 24.5818 125.961 25.0965C125.572 25.6038 125.109 25.8611 124.559 25.8611C124.096 25.8611 123.714 25.692 123.421 25.3611C123.12 25.0229 122.973 24.545 122.973 23.9054V16.4944H128.818V24.2436C128.818 25.0744 129.082 25.7508 129.611 26.2655C130.139 26.7801 130.874 27.0374 131.814 27.0374C132.827 27.0374 133.657 26.6698 134.296 25.942C134.934 25.2141 135.279 24.0892 135.331 22.5747H134.516H134.508Z" fill="black"/>
<path d="M2.54078 73.1282L3.99469 76.8263C4.04609 76.9587 4.19295 77.0543 4.3545 77.0543H4.47933V77.2601H2.87122V77.0543H2.99605C3.28977 77.0543 3.42928 76.9954 3.42928 76.8778C3.42928 76.8484 3.42928 76.819 3.40725 76.7822L3.06948 75.922H1.46871L1.25577 76.444C1.23374 76.5102 1.21905 76.569 1.21905 76.6352C1.21905 76.8999 1.38794 77.0469 1.68166 77.0469H1.82117V77.2528H0.359924V77.0469H0.403982C0.638957 77.0469 0.859246 76.8558 0.984076 76.5543L2.35721 73.1208H2.54078V73.1282ZM1.55683 75.7088H2.9887L2.28378 73.9002L1.55683 75.7088Z" fill="black"/>
<path d="M7.62941 73.209L8.86302 76.4072L9.99384 73.209H11.3817V73.4149H11.0365C10.8016 73.4149 10.7355 73.4737 10.7355 73.6502V76.8557C10.7355 76.9954 10.8383 77.0542 11.0953 77.0542H11.3817V77.2601H9.52389V77.0542H9.86901C10.0526 77.0542 10.1554 76.9807 10.1554 76.8557V73.4296H10.1407L8.79694 77.2601H8.61336L7.17414 73.437H7.15946V76.3705C7.15946 76.7822 7.40178 77.0395 7.81298 77.0542V77.2601H6.28564V77.0542C6.67482 77.0469 6.93917 76.7896 6.93917 76.4146V73.6061C6.93917 73.4811 6.84371 73.4149 6.64545 73.4149H6.28564V73.209H7.63675H7.62941Z" fill="black"/>
<path d="M16.6466 73.209L16.7347 74.6133H16.5512C16.4924 74.2531 16.4484 74.0987 16.3529 73.9222C16.2942 73.8046 16.2207 73.709 16.1253 73.6208C15.9858 73.4884 15.7875 73.4149 15.5745 73.4149H14.7742C14.686 73.4149 14.5906 73.5105 14.5906 73.6208V75.0691H14.9431C15.3322 75.0691 15.5745 74.7677 15.5819 74.2604H15.7655V76.1352H15.5819V76.0617C15.5819 75.5911 15.3102 75.2677 14.9063 75.2677H14.5906V76.8778C14.5906 76.9881 14.686 77.0616 14.8476 77.0616H15.5011C15.6406 77.0616 15.8389 77.0248 15.9637 76.9734C16.1546 76.8925 16.3088 76.7528 16.4337 76.5396C16.5585 76.319 16.6246 76.0984 16.676 75.7308H16.8669L16.7935 77.2748H13.4377V77.0689H13.7168C13.915 77.0689 14.0105 77.0028 14.0105 76.8484V73.6502C14.0105 73.5105 13.9224 73.437 13.7755 73.437H13.4377V73.2311H16.6393L16.6466 73.209Z" fill="black"/>
<path d="M20.7953 73.209C21.559 73.209 22.0657 73.5987 22.0657 74.1942C22.0657 74.5398 21.9115 74.8045 21.6031 74.9883C21.4121 75.0986 21.2653 75.1427 20.8688 75.1868H20.7733V75.2015C20.7733 75.2015 20.7953 75.2015 20.8321 75.2088C21.1111 75.2897 21.1919 75.3265 21.3681 75.4515C21.5443 75.6206 21.6251 75.7897 21.7059 76.1279C21.7206 76.1793 21.7206 76.1867 21.7279 76.2087V76.2455C21.7279 76.2455 21.7573 76.3117 21.7646 76.3558C21.8748 76.7675 21.9629 76.9145 22.0877 76.9145C22.2272 76.9145 22.308 76.7454 22.33 76.3999C22.33 76.3778 22.33 76.3705 22.33 76.3631H22.5136C22.4769 76.9807 22.2492 77.2895 21.8013 77.2895C21.6031 77.2895 21.4415 77.2086 21.3461 77.0542C21.2212 76.8704 21.1698 76.6646 21.1331 76.297C21.0964 75.9073 21.0817 75.8338 20.9642 75.5911C20.81 75.3632 20.5971 75.2677 20.252 75.2677H19.9215V76.8851C19.9215 76.9807 20.0317 77.0469 20.1785 77.0469H20.5677V77.2527H18.6953V77.0469H19.0918C19.2533 77.0469 19.3414 76.9734 19.3414 76.8557V73.6208C19.3414 73.4884 19.2533 73.4149 19.0844 73.4149H18.6953V73.209H20.7807H20.7953ZM20.4135 75.0691C21.0964 75.0691 21.4415 74.8045 21.4415 74.2604C21.4415 73.9516 21.3681 73.7237 21.2286 73.5914C21.1111 73.4737 20.9716 73.4296 20.6779 73.4149H20.1638C20.0317 73.4149 19.9362 73.5031 19.9362 73.6134V75.0691H20.4135Z" fill="black"/>
<path d="M26.075 73.209V73.4149H25.7151C25.5463 73.4149 25.4288 73.4811 25.4288 73.5914V76.8557C25.4288 76.9807 25.5169 77.0469 25.6858 77.0469H26.075V77.2527H24.2098V77.0469H24.599C24.7679 77.0469 24.856 76.9881 24.856 76.8557V73.6061C24.856 73.4884 24.7532 73.4149 24.5696 73.4149H24.2098V73.209H26.075Z" fill="black"/>
<path d="M31.0975 73.1355H31.2664L31.3325 74.7677H31.1489C31.0828 74.5104 31.0461 74.4221 30.9874 74.2751C30.9066 74.0692 30.8185 73.9148 30.701 73.7678C30.4807 73.4884 30.2017 73.3487 29.8639 73.3487C29.4674 73.3487 29.1296 73.5913 28.9534 73.981C28.8065 74.3192 28.7257 74.8118 28.7257 75.3338C28.7257 76.4954 29.1663 77.1424 29.9594 77.1351C30.4293 77.1351 30.7965 76.9219 31.0241 76.5101C31.1269 76.3263 31.1636 76.194 31.2297 75.8705H31.4206C31.3839 76.1719 31.3545 76.2896 31.2591 76.5028C31.1709 76.6866 31.0681 76.841 30.9507 76.9586C30.6937 77.2086 30.2898 77.3703 29.908 77.3703C28.8579 77.3703 28.0428 76.4881 28.0428 75.3558C28.0428 74.128 28.8506 73.1502 29.8492 73.1502C30.0842 73.1502 30.3045 73.2017 30.5101 73.3046C30.6276 73.3708 30.701 73.4149 30.8919 73.5472L31.0828 73.1576L31.0975 73.1355Z" fill="black"/>
<path d="M35.4519 73.1282L36.9058 76.8263C36.9572 76.9587 37.1041 77.0543 37.2656 77.0543H37.3905V77.2601H35.7824V77.0543H35.9072C36.2009 77.0543 36.3404 76.9954 36.3404 76.8778C36.3404 76.8484 36.3404 76.819 36.3184 76.7822L35.9806 75.922H34.3872L34.1742 76.444C34.1522 76.5102 34.1375 76.569 34.1375 76.6352C34.1375 76.8999 34.3064 77.0469 34.6001 77.0469H34.7323V77.2528H33.2711V77.0469H33.3151C33.5501 77.0469 33.7704 76.8558 33.8952 76.5543L35.2683 73.1208H35.4519V73.1282ZM34.468 75.7088H35.8998L35.1949 73.9002L34.468 75.7088Z" fill="black"/>
<path d="M41.6787 73.1576H41.877L41.8917 74.6427H41.7081C41.642 74.356 41.598 74.253 41.5025 74.0545C41.4291 73.9148 41.3483 73.7972 41.2602 73.7016C41.0472 73.4737 40.7535 73.3414 40.4671 73.3414C39.9825 73.3414 39.6301 73.6502 39.6301 74.0766C39.6301 74.3633 39.7622 74.5692 40.0339 74.6942C40.1514 74.7456 40.3203 74.7971 40.636 74.8559C41.0399 74.9368 41.128 74.9662 41.3997 75.0691C41.6347 75.1794 41.7375 75.2456 41.8476 75.3632C42.0312 75.5544 42.112 75.7749 42.112 76.0764C42.112 76.7748 41.5392 77.341 40.827 77.341C40.5846 77.341 40.3717 77.3042 40.1734 77.2233C39.9899 77.1572 39.9017 77.091 39.7108 76.9219L39.4024 77.3042H39.2042V75.7382H39.3951C39.4318 75.9514 39.4538 76.0323 39.5566 76.2381C39.6594 76.4587 39.7696 76.6204 39.8871 76.7454C40.1294 76.9954 40.4598 77.1351 40.8049 77.1351C41.3336 77.1351 41.7301 76.7822 41.7301 76.3117C41.7301 76.047 41.5906 75.8338 41.3189 75.6941C41.1721 75.6205 41.106 75.5985 40.6948 75.5103C40.2689 75.422 40.1881 75.3926 39.9311 75.2971C39.7182 75.2015 39.6374 75.15 39.5273 75.0471C39.3437 74.8633 39.2482 74.6207 39.2482 74.3192C39.2482 73.6428 39.7769 73.1135 40.4451 73.1135C40.6214 73.1135 40.7829 73.1502 40.9444 73.209C41.128 73.2826 41.2161 73.3414 41.4217 73.5178L41.6641 73.1576H41.6787Z" fill="black"/>
<path d="M52.5243 73.1282L53.9782 76.8263C54.0296 76.9587 54.1765 77.0543 54.338 77.0543H54.4628V77.2601H52.8547V77.0543H52.9796C53.2733 77.0543 53.4128 76.9954 53.4128 76.8778C53.4128 76.8484 53.4128 76.819 53.3908 76.7822L53.053 75.922H51.4596L51.2466 76.444C51.2246 76.5102 51.2099 76.569 51.2099 76.6352C51.2099 76.8999 51.3788 77.0469 51.6725 77.0469H51.812V77.2528H50.3508V77.0469H50.3948C50.6298 77.0469 50.8501 76.8558 50.9749 76.5543L52.3481 73.1208H52.5316L52.5243 73.1282ZM51.5403 75.7088H52.9722L52.2673 73.9002L51.5403 75.7088Z" fill="black"/>
<path d="M58.7438 73.1576H58.9421L58.9567 74.6427H58.7732C58.7071 74.356 58.663 74.253 58.5676 74.0545C58.4941 73.9148 58.4134 73.7972 58.3252 73.7016C58.1123 73.4737 57.8186 73.3414 57.5322 73.3414C57.0476 73.3414 56.6951 73.6502 56.6951 74.0766C56.6951 74.3633 56.8273 74.5692 57.099 74.6942C57.2165 74.7456 57.3853 74.7971 57.7011 74.8559C58.105 74.9368 58.1857 74.9662 58.4648 75.0691C58.6997 75.1794 58.8025 75.2456 58.9127 75.3632C59.0963 75.5544 59.177 75.7749 59.177 76.0764C59.177 76.7748 58.6043 77.341 57.8993 77.341C57.657 77.341 57.4441 77.3042 57.2458 77.2233C57.0622 77.1572 56.9741 77.091 56.7832 76.9219L56.4748 77.3042H56.2766V75.7382H56.4675C56.5042 75.9514 56.5262 76.0323 56.629 76.2381C56.7318 76.4587 56.842 76.6204 56.9594 76.7454C57.2018 76.9954 57.5322 77.1351 57.8773 77.1351C58.406 77.1351 58.8025 76.7822 58.8025 76.3117C58.8025 76.047 58.663 75.8338 58.3913 75.6941C58.2445 75.6205 58.1784 75.5985 57.7672 75.5103C57.3413 75.422 57.2605 75.3926 57.0108 75.2971C56.7979 75.2015 56.7171 75.15 56.607 75.0471C56.4161 74.8633 56.328 74.6207 56.328 74.3192C56.328 73.6428 56.8566 73.1135 57.5249 73.1135C57.7011 73.1135 57.8626 73.1502 58.0242 73.209C58.2078 73.2826 58.2959 73.3414 58.5015 73.5178L58.7438 73.1576Z" fill="black"/>
<path d="M62.8705 73.209V73.4149H62.5107C62.3419 73.4149 62.2244 73.4811 62.2244 73.5914V76.8557C62.2244 76.9807 62.3125 77.0469 62.4814 77.0469H62.8705V77.2527H61.0054V77.0469H61.3946C61.5635 77.0469 61.6516 76.9881 61.6516 76.8557V73.6061C61.6516 73.4884 61.5488 73.4149 61.3652 73.4149H61.0054V73.209H62.8705Z" fill="black"/>
<path d="M66.755 73.1282L68.2089 76.8263C68.2603 76.9587 68.4071 77.0543 68.5687 77.0543H68.6935V77.2601H67.0854V77.0543H67.2102C67.504 77.0543 67.6435 76.9954 67.6435 76.8778C67.6435 76.8484 67.6435 76.819 67.6214 76.7822L67.2837 75.922H65.6902L65.4846 76.444C65.4626 76.5102 65.4479 76.569 65.4479 76.6352C65.4479 76.8999 65.6168 77.0469 65.9105 77.0469H66.0501V77.2528H64.5888V77.0469H64.6329C64.8678 77.0469 65.0881 76.8558 65.213 76.5543L66.5861 73.1208H66.7697L66.755 73.1282ZM65.771 75.7088H67.2029L66.498 73.9002L65.771 75.7088Z" fill="black"/>
<path d="M75.3389 73.209C76.176 73.209 76.7194 73.6355 76.7194 74.2972C76.7194 74.9589 76.176 75.4294 75.3389 75.4294H74.5385V76.8116C74.5385 76.9734 74.6266 77.0469 74.8028 77.0469H75.2581V77.2527H73.3269V77.0469H73.7308C73.8776 77.0469 73.9657 76.9807 73.9657 76.8704V73.6355C73.9657 73.4737 73.8776 73.4149 73.628 73.4149H73.3269V73.209H75.3315H75.3389ZM75.1112 75.2309C75.449 75.2309 75.7281 75.15 75.8676 75.003C76.0071 74.8633 76.0879 74.606 76.0879 74.3192C76.0879 74.0031 76.0218 73.7752 75.8749 73.6355C75.7354 73.4958 75.5885 73.4443 75.2508 73.4223H74.7661C74.6266 73.4223 74.5385 73.5105 74.5385 73.6575V75.2382H75.1039L75.1112 75.2309Z" fill="black"/>
<path d="M80.0163 73.1282L81.4702 76.8263C81.5216 76.9587 81.6685 77.0543 81.83 77.0543H81.9549V77.2601H80.3468V77.0543H80.4716C80.7653 77.0543 80.9048 76.9954 80.9048 76.8778C80.9048 76.8484 80.9048 76.819 80.8828 76.7822L80.545 75.922H78.9516L78.746 76.444C78.724 76.5102 78.7093 76.569 78.7093 76.6352C78.7093 76.8999 78.8782 77.0469 79.1719 77.0469H79.3114V77.2528H77.8502V77.0469H77.8942C78.1292 77.0469 78.3495 76.8558 78.4743 76.5543L79.8474 73.1208H80.031L80.0163 73.1282ZM79.0324 75.7088H80.4643L79.7593 73.9002L79.0324 75.7088Z" fill="black"/>
<path d="M86.5516 73.1355H86.7204L86.7865 74.7677H86.603C86.5369 74.5104 86.5002 74.4221 86.4414 74.2751C86.3606 74.0692 86.2725 73.9148 86.155 73.7678C85.9348 73.4884 85.6557 73.3487 85.3179 73.3487C84.9214 73.3487 84.5837 73.5913 84.4074 73.981C84.2606 74.3192 84.1798 74.8118 84.1798 75.3338C84.1798 76.4954 84.6204 77.1424 85.4134 77.1351C85.8834 77.1351 86.2578 76.9219 86.4781 76.5101C86.5809 76.3263 86.6177 76.194 86.6837 75.8705H86.8747C86.8379 76.1719 86.8086 76.2896 86.7131 76.5028C86.625 76.6866 86.5222 76.841 86.4047 76.9586C86.1477 77.2086 85.7438 77.3703 85.362 77.3703C84.312 77.3703 83.4969 76.4881 83.4969 75.3558C83.4969 74.128 84.3046 73.1502 85.3033 73.1502C85.5382 73.1502 85.7585 73.2017 85.9641 73.3046C86.0816 73.3708 86.155 73.4149 86.346 73.5472L86.5369 73.1576L86.5516 73.1355Z" fill="black"/>
<path d="M90.627 73.209V73.4149H90.2671C90.0983 73.4149 89.9808 73.4811 89.9808 73.5914V76.8557C89.9808 76.9807 90.0689 77.0469 90.2378 77.0469H90.627V77.2527H88.7618V77.0469H89.151C89.3199 77.0469 89.408 76.9881 89.408 76.8557V73.6061C89.408 73.4884 89.3052 73.4149 89.1216 73.4149H88.7618V73.209H90.627Z" fill="black"/>
<path d="M95.8331 73.209L95.8845 74.6133H95.7009C95.6128 74.084 95.5174 73.8413 95.3338 73.6575C95.1723 73.4884 94.9446 73.4149 94.6068 73.4149H93.946C93.8505 73.4149 93.7624 73.5031 93.7624 73.5987V75.0544H94.1002C94.5114 75.0544 94.7464 74.7677 94.7537 74.2604H94.952V76.1205H94.7537C94.7537 75.797 94.6876 75.5985 94.5701 75.4588C94.4673 75.3412 94.2911 75.2603 94.1296 75.2603H93.7624V76.8043C93.7624 76.9807 93.8432 77.0542 94.0488 77.0542H94.4747V77.2601H92.5361V77.0542H92.918C93.0795 77.0542 93.1823 76.9881 93.1823 76.8925V73.6281C93.1823 73.4811 93.1089 73.4223 92.9033 73.4223H92.5361V73.2164H95.8405L95.8331 73.209Z" fill="black"/>
<path d="M99.4312 73.209V73.4149H99.0714C98.9025 73.4149 98.785 73.4811 98.785 73.5914V76.8557C98.785 76.9807 98.8731 77.0469 99.042 77.0469H99.4312V77.2527H97.5661V77.0469H97.9552C98.1241 77.0469 98.2122 76.9881 98.2122 76.8557V73.6061C98.2122 73.4884 98.1094 73.4149 97.9185 73.4149H97.5587V73.209H99.4238H99.4312Z" fill="black"/>
<path d="M104.454 73.1355H104.623L104.689 74.7677H104.505C104.439 74.5104 104.402 74.4221 104.344 74.2751C104.263 74.0692 104.175 73.9148 104.057 73.7678C103.837 73.4884 103.558 73.3487 103.22 73.3487C102.824 73.3487 102.486 73.5913 102.31 73.981C102.163 74.3192 102.082 74.8118 102.082 75.3338C102.082 76.4954 102.523 77.1424 103.316 77.1351C103.786 77.1351 104.153 76.9219 104.38 76.5101C104.483 76.3263 104.52 76.194 104.586 75.8705H104.777C104.74 76.1719 104.711 76.2896 104.615 76.5028C104.527 76.6866 104.424 76.841 104.307 76.9586C104.05 77.2086 103.646 77.3703 103.264 77.3703C102.214 77.3703 101.399 76.4881 101.399 75.3558C101.399 74.128 102.207 73.1502 103.205 73.1502C103.44 73.1502 103.661 73.2017 103.866 73.3046C103.984 73.3708 104.05 73.4149 104.248 73.5472L104.439 73.1576L104.454 73.1355Z" fill="black"/>
<path d="M116.283 73.209L116.371 74.6133H116.188C116.136 74.2531 116.085 74.0987 115.99 73.9222C115.923 73.8046 115.85 73.709 115.762 73.6208C115.622 73.4884 115.424 73.4149 115.211 73.4149H114.411C114.323 73.4149 114.227 73.5105 114.227 73.6208V75.0691H114.58C114.969 75.0691 115.211 74.7677 115.219 74.2604H115.402V76.1352H115.219V76.0617C115.219 75.5911 114.947 75.2677 114.543 75.2677H114.227V76.8778C114.227 76.9881 114.323 77.0616 114.484 77.0616H115.138C115.277 77.0616 115.476 77.0248 115.6 76.9734C115.791 76.8925 115.945 76.7528 116.07 76.5396C116.195 76.319 116.261 76.0984 116.313 75.7308H116.504L116.43 77.2748H113.082V77.0689H113.361C113.559 77.0689 113.654 77.0028 113.654 76.8484V73.6502C113.654 73.5105 113.566 73.437 113.42 73.437H113.082V73.2311H116.283V73.209Z" fill="black"/>
<path d="M119.793 73.209L121.027 76.4072L122.158 73.209H123.545V73.4149H123.2C122.965 73.4149 122.899 73.4737 122.899 73.6502V76.8557C122.899 76.9954 123.002 77.0542 123.259 77.0542H123.545V77.2601H121.688V77.0542H122.033C122.216 77.0542 122.327 76.9807 122.327 76.8557V73.4296H122.312L120.968 77.2601H120.785L119.345 73.437H119.338V76.3705C119.338 76.7822 119.58 77.0395 119.991 77.0542V77.2601H118.457V77.0542C118.846 77.0469 119.11 76.7896 119.11 76.4146V73.6061C119.11 73.4811 119.015 73.4149 118.817 73.4149H118.457V73.209H119.808H119.793Z" fill="black"/>
<path d="M128.818 73.209L128.906 74.6133H128.722C128.663 74.2531 128.619 74.0987 128.524 73.9222C128.458 73.8046 128.392 73.709 128.296 73.6208C128.157 73.4884 127.959 73.4149 127.746 73.4149H126.945C126.857 73.4149 126.762 73.5105 126.762 73.6208V75.0691H127.114C127.503 75.0691 127.746 74.7677 127.753 74.2604H127.937V76.1352H127.753V76.0617C127.753 75.5911 127.481 75.2677 127.077 75.2677H126.762V76.8778C126.762 76.9881 126.857 77.0616 127.019 77.0616H127.672C127.812 77.0616 128.01 77.0248 128.135 76.9734C128.326 76.8925 128.48 76.7528 128.605 76.5396C128.73 76.319 128.796 76.0984 128.847 75.7308H129.038L128.965 77.2748H125.616V77.0689H125.895C126.093 77.0689 126.189 77.0028 126.189 76.8484V73.6502C126.189 73.5105 126.101 73.437 125.954 73.437H125.616V73.2311H128.818V73.209Z" fill="black"/>
<path d="M133.025 73.1282L134.479 76.8263C134.53 76.9587 134.677 77.0543 134.839 77.0543H134.964V77.2601H133.356V77.0543H133.48C133.774 77.0543 133.914 76.9954 133.914 76.8778C133.914 76.8484 133.914 76.819 133.892 76.7822L133.554 75.922H131.96L131.755 76.444C131.733 76.5102 131.718 76.569 131.718 76.6352C131.718 76.8999 131.887 77.0469 132.181 77.0469H132.32V77.2528H130.859V77.0469H130.903C131.138 77.0469 131.358 76.8558 131.483 76.5543L132.856 73.1208H133.04L133.025 73.1282ZM132.041 75.7088H133.473L132.768 73.9002L132.041 75.7088Z" fill="black"/>
</g>
<defs>
<clipPath id="clip0_3370_1108">
<rect width="135.265" height="76.6978" fill="white" transform="translate(0.0588379 0.657898)"/>
</clipPath>
</defs>
</svg>
