<?xml version="1.0" encoding="UTF-8"?>
<svg version="1.1" xmlns="http://www.w3.org/2000/svg" width="1042" height="440">
<path d="M0 0 C343.86 0 687.72 0 1042 0 C1042 145.2 1042 290.4 1042 440 C698.14 440 354.28 440 0 440 C0 294.8 0 149.6 0 0 Z " fill="#FEFEFE" transform="translate(0,0)"/>
<path d="M0 0 C6.75832725 -0.1533402 13.51619883 -0.25770894 20.27587891 -0.32958984 C22.57064578 -0.35958469 24.86529975 -0.40039491 27.15966797 -0.45263672 C52.36011521 -1.0116723 52.36011521 -1.0116723 61 6 C67.66313108 12.95965785 68.47952416 18.86168612 68.41015625 28.375 C67.63056121 35.26513521 64.3429271 39.96946318 59.1875 44.4375 C51.16857079 48.36834765 44.34094525 49.41548308 35.4375 49.1875 C30.2709375 49.0946875 30.2709375 49.0946875 25 49 C25.33 58.9 25.66 68.8 26 79 C30.29 79.33 34.58 79.66 39 80 C39 81.32 39 82.64 39 84 C26.13 84 13.26 84 0 84 C0 82.68 0 81.36 0 80 C5.445 79.505 5.445 79.505 11 79 C11 54.58 11 30.16 11 5 C7.37 4.67 3.74 4.34 0 4 C0 2.68 0 1.36 0 0 Z " fill="#040404" transform="translate(495,176)"/>
<path d="M0 0 C6.42289839 -0.05087056 12.84574446 -0.0858051 19.26879883 -0.10986328 C21.45208681 -0.11989692 23.63536143 -0.1335269 25.81860352 -0.15087891 C28.96373805 -0.17524313 32.10869429 -0.18650971 35.25390625 -0.1953125 C36.2239711 -0.20563507 37.19403595 -0.21595764 38.1934967 -0.22659302 C46.37929803 -0.22793649 54.73815527 0.80082946 60.859375 6.83203125 C67.11968924 13.80374484 68.48150145 18.04033887 68.3046875 27.51953125 C67.71737489 34.22844841 65.15788527 38.14057865 60.4375 42.8125 C49.98302663 51.13806243 36.59629698 49.24069357 24 49 C24.33 58.9 24.66 68.8 25 79 C31.93 79.495 31.93 79.495 39 80 C39 81.32 39 82.64 39 84 C26.13 84 13.26 84 0 84 C0 82.68 0 81.36 0 80 C5.445 79.505 5.445 79.505 11 79 C11 54.58 11 30.16 11 5 C7.37 4.67 3.74 4.34 0 4 C0 2.68 0 1.36 0 0 Z " fill="#FF35CC" transform="translate(206,176)"/>
<path d="M0 0 C2.58912176 2.33856159 4.43230763 4.86461527 6 8 C6.12085792 10.85662483 6.1857094 13.69302949 6.2109375 16.55078125 C6.23901066 18.29883742 6.26767516 20.04688417 6.296875 21.79492188 C6.33810711 24.5533009 6.37499049 27.31150503 6.40136719 30.07006836 C6.42901978 32.73067651 6.47489586 35.39048308 6.5234375 38.05078125 C6.52669037 38.87177811 6.52994324 39.69277496 6.53329468 40.53865051 C6.63165267 45.13388204 6.95988001 48.30428334 10 52 C12.59122743 52.88658466 12.59122743 52.88658466 15 53 C15 54.32 15 55.64 15 57 C9.83387929 58.72204024 4.79138223 58.5745943 -0.3125 56.9375 C-3.91694886 54.33894384 -4.58638919 52.16229848 -6 48 C-6.680625 48.7425 -7.36125 49.485 -8.0625 50.25 C-12.95275647 55.16820079 -18.7040927 58.1460478 -25.625 58.3125 C-31.28287304 58.23796515 -35.54978871 57.63827898 -40 54 C-43.7094412 50.06382034 -45.31032672 46.27638906 -45.5625 40.875 C-45.29185006 36.22409452 -44.18674646 33.51359225 -41 30 C-30.87256916 21.00062458 -17.76710541 21.83861805 -5 22 C-5.26740193 12.52446185 -5.26740193 12.52446185 -9 4 C-13.46609233 1.02260511 -17.76684674 1.27210899 -23 2 C-26.9100116 4.55347696 -28.16141789 6.93372142 -29.3125 11.3125 C-29.539375 12.529375 -29.76625 13.74625 -30 15 C-33.63 15 -37.26 15 -41 15 C-40.79257075 9.08826637 -39.8520723 5.79525717 -35.74609375 1.47265625 C-26.30749488 -6.48786226 -10.18913105 -6.1209432 0 0 Z " fill="#080808" transform="translate(784,203)"/>
<path d="M0 0 C6.93 0 13.86 0 21 0 C21.03738281 2.84367188 21.07476562 5.68734375 21.11328125 8.6171875 C21.15962016 11.40079009 21.21080864 14.18426477 21.26245117 16.96777344 C21.29550746 18.88794037 21.32359812 20.80819997 21.34643555 22.72851562 C21.38033941 25.50430439 21.43266909 28.27925852 21.48828125 31.0546875 C21.49467117 31.8998996 21.5010611 32.74511169 21.50764465 33.61593628 C21.65090672 39.55145402 22.2855447 45.63598287 25 51 C28.7194564 53.51647605 32.64651955 53.5473428 37 53 C40.21696962 51.84991114 40.21696962 51.84991114 43 50 C43.87221191 49.49170654 44.74442383 48.98341309 45.64306641 48.4597168 C48.63579274 45.33648106 48.57715654 43.66338737 48.59213257 39.47383118 C48.5694632 38.6226622 48.54679382 37.77149323 48.5234375 36.89453125 C48.51873444 36.01472092 48.51403137 35.13491058 48.50918579 34.22843933 C48.48785411 31.42232632 48.43122268 28.61810783 48.375 25.8125 C48.35849331 23.91212709 48.34414513 22.01173412 48.33203125 20.11132812 C48.96240742 12.0042179 48.96240742 12.0042179 47 5 C44.67182036 4.63239269 42.3381615 4.29758419 40 4 C40 2.68 40 1.36 40 0 C46.93 0 53.86 0 61 0 C61.02505615 1.52399414 61.0501123 3.04798828 61.07592773 4.61816406 C61.17005238 10.26880397 61.27026094 15.91932241 61.37231445 21.56982422 C61.41564412 24.01608439 61.45732061 26.46237442 61.49731445 28.90869141 C61.55506438 32.42359418 61.61874562 35.93834691 61.68359375 39.453125 C61.70030624 40.5480426 61.71701874 41.64296021 61.73423767 42.77105713 C61.7641555 44.30219147 61.7641555 44.30219147 61.79467773 45.86425781 C61.81799416 47.20994843 61.81799416 47.20994843 61.84178162 48.58282471 C61.99002029 50.84753532 62.36909805 52.82560444 63 55 C65.31 55.33 67.62 55.66 70 56 C70 57.32 70 58.64 70 60 C65.0405356 61.27986178 58.86732264 62.51870903 54.15625 60.0234375 C51.24603254 57.69811669 49.53167344 55.33406125 48 52 C47.57589844 52.39832031 47.15179688 52.79664063 46.71484375 53.20703125 C40.23937658 59.05629939 34.53906995 61.64245782 25.71484375 61.33984375 C20.58244824 60.69737122 16.75905722 59.14069807 13.43359375 55.09375 C10.42309049 50.49651426 8.91204165 46.49818324 8.81054688 40.98168945 C8.78547058 39.81577019 8.78547058 39.81577019 8.7598877 38.626297 C8.74631226 37.7970018 8.73273682 36.9677066 8.71875 36.11328125 C8.69113586 34.82685982 8.69113586 34.82685982 8.66296387 33.51445007 C8.58434535 29.84919576 8.51629102 26.18376519 8.44775391 22.51831055 C8.39618196 19.8415373 8.33889948 17.16492937 8.28125 14.48828125 C8.26767456 13.65291336 8.25409912 12.81754547 8.2401123 11.9568634 C8.51923659 8.16927814 8.51923659 8.16927814 7 5 C4.67182036 4.63239269 2.3381615 4.29758419 0 4 C0 2.68 0 1.36 0 0 Z " fill="#050505" transform="translate(355,200)"/>
<path d="M0 0 C12.21 0 24.42 0 37 0 C37 1.32 37 2.64 37 4 C31.06 4.495 31.06 4.495 25 5 C24.67 29.42 24.34 53.84 24 79 C49.64027288 81.26828516 49.64027288 81.26828516 56 74 C58.36998793 69.34780147 59.47105064 65.18370376 60 60 C61.98 60 63.96 60 66 60 C66.02712325 62.87506421 66.04689851 65.74986908 66.0625 68.625 C66.07087891 69.43324219 66.07925781 70.24148437 66.08789062 71.07421875 C66.09111328 71.86699219 66.09433594 72.65976563 66.09765625 73.4765625 C66.10289307 74.19924316 66.10812988 74.92192383 66.11352539 75.66650391 C65.97734286 78.46571381 65.46073155 81.2356107 65 84 C43.55 84 22.1 84 0 84 C0 82.68 0 81.36 0 80 C4.95 79.505 4.95 79.505 10 79 C10.33 54.25 10.66 29.5 11 4 C7.37 4 3.74 4 0 4 C0 2.68 0 1.36 0 0 Z " fill="#FF38CD" transform="translate(283,176)"/>
<path d="M0 0 C6.530899 5.40524811 10.25377375 10.90437801 11.58984375 19.30078125 C12.42465704 30.38600684 11.48973284 39.91772432 4.27734375 48.73828125 C-0.85897958 54.11709195 -6.33829912 57.05684511 -13.80078125 57.50390625 C-24.5741608 57.63475701 -31.53304503 56.7829657 -39.6484375 49.2734375 C-45.64948415 42.55386198 -46.6104066 35.2072207 -46.66015625 26.55078125 C-46.68078125 25.6690625 -46.70140625 24.78734375 -46.72265625 23.87890625 C-46.77149767 15.67354851 -44.55461769 9.83563767 -39.41015625 3.30078125 C-28.82353236 -6.38436157 -12.06527035 -8.50630892 0 0 Z M-29.8515625 5.13671875 C-34.44408553 11.96662479 -34.6094203 18.59065911 -34.66015625 26.61328125 C-34.68078125 27.41701172 -34.70140625 28.22074219 -34.72265625 29.04882812 C-34.76886614 36.22868957 -33.50091579 42.98464645 -28.97265625 48.73828125 C-25.55533751 52.15559999 -22.9436379 53.58970698 -18.09765625 53.67578125 C-13.39233294 53.53647892 -9.89544743 52.55070212 -6.41015625 49.30078125 C-1.45092936 42.08050867 -1.20776787 34.53755307 -1.16015625 26.05078125 C-1.13953125 25.14714844 -1.11890625 24.24351562 -1.09765625 23.3125 C-1.05460484 15.83231828 -1.96881259 9.24291336 -6.84765625 3.36328125 C-11.28914645 -0.21157672 -14.52131884 -1.17052871 -20.16796875 -1.00390625 C-24.55645137 -0.40756192 -27.16732046 1.71776547 -29.8515625 5.13671875 Z " fill="#080808" transform="translate(619.41015625,203.69921875)"/>
<path d="M0 0 C2.96719936 2.53448279 4.84289051 4.76433576 7 8 C7.125 11.1875 7.125 11.1875 7 14 C3.37 14 -0.26 14 -4 14 C-4.35807292 12.046875 -4.71614583 10.09375 -5.07421875 8.140625 C-6.42621567 5.01448865 -8.12907921 3.79234282 -11 2 C-14.20645582 1.37149029 -14.20645582 1.37149029 -17.5625 1.5 C-19.23505859 1.48453125 -19.23505859 1.48453125 -20.94140625 1.46875 C-24.6011308 2.10441097 -25.77967416 3.07320685 -28 6 C-28.75015195 8.95691709 -28.75015195 8.95691709 -28 12 C-23.71460092 18.20644004 -16.3145704 19.85790784 -9.34375 21.703125 C-1.996804 23.6532403 3.57812548 26.51855538 8 32.875 C9.65083514 38.03385981 9.68106622 42.07031237 7.875 47.1875 C4.27063383 52.59404925 -0.00640519 55.67352285 -6.18359375 57.4921875 C-15.77276901 59.22116501 -26.54641338 59.38106496 -35 54 C-38.85785115 50.73777908 -40.82976793 46.89369773 -42 42 C-42 40.68 -42 39.36 -42 38 C-38.37 38 -34.74 38 -31 38 C-30.6596875 40.0728125 -30.6596875 40.0728125 -30.3125 42.1875 C-29.30786381 46.74424273 -27.74588636 49.07638138 -24 52 C-18.50577808 53.83140731 -12.96277005 53.66593984 -7.5 51.8125 C-4.47111261 49.61655664 -3.71813605 48.67047314 -3 45 C-3.14788761 41.9657543 -3.51668343 38.99786898 -4 36 C-7.15320886 34.6336095 -10.33137772 33.58476573 -13.625 32.625 C-33.95675759 26.56486361 -33.95675759 26.56486361 -39 19 C-39.68146491 13.62718722 -40.48171348 7.03963721 -37.125 2.4375 C-26.42188906 -5.91092653 -11.8079864 -6.94587435 0 0 Z " fill="#0B0B0B" transform="translate(477,203)"/>
<path d="M0 0 C7.26 0 14.52 0 22 0 C22 28.38 22 56.76 22 86 C25.63 86 29.26 86 33 86 C33 87.32 33 88.64 33 90 C21.78 90 10.56 90 -1 90 C-1 88.68 -1 87.36 -1 86 C2.63 86 6.26 86 10 86 C9.9388775 75.73404258 9.86183599 65.46834125 9.76428509 55.20266151 C9.71949571 50.43623153 9.68025878 45.66988871 9.65356445 40.90332031 C9.62761655 36.30607791 9.58727543 31.70916945 9.53681374 27.11213303 C9.52008715 25.3554435 9.50860908 23.59869615 9.50238609 21.84193802 C9.49280751 19.38726776 9.46482531 16.93346308 9.43237305 14.47900391 C9.43380814 13.74748611 9.43524323 13.01596832 9.4367218 12.26228333 C9.4296965 10.03037317 9.4296965 10.03037317 9 7 C5.81237635 4.87491756 3.73487777 4.4979837 0 4 C0 2.68 0 1.36 0 0 Z " fill="#050505" transform="translate(804,170)"/>
<path d="M0 0 C3.66184634 2.30560695 5.53908024 4.0153078 7.375 7.9375 C8 11 8 11 8 17 C4.04 17 0.08 17 -4 17 C-4.66 14.03 -5.32 11.06 -6 8 C-11.78969455 9.15793891 -15.64729837 10.97478583 -19 16 C-19.84285666 19.19458751 -19.83924855 22.2640397 -19.8046875 25.5546875 C-19.82524704 26.90700974 -19.82524704 26.90700974 -19.84622192 28.28665161 C-19.88344143 31.14994577 -19.87981261 34.0114988 -19.875 36.875 C-19.89313245 38.82294368 -19.91393687 40.77086444 -19.9375 42.71875 C-19.98927549 47.47945738 -20.00443589 52.23902657 -20 57 C-16.04 57 -12.08 57 -8 57 C-8 58.32 -8 59.64 -8 61 C-18.89 61 -29.78 61 -41 61 C-41 59.68 -41 58.36 -41 57 C-38.03 57 -35.06 57 -32 57 C-32.11728874 49.89741338 -32.24212465 42.79498875 -32.37231445 35.69262695 C-32.41573878 33.27436361 -32.45740812 30.8560681 -32.49731445 28.43774414 C-32.55483603 24.97011604 -32.61858187 21.50265097 -32.68359375 18.03515625 C-32.70030624 16.94662857 -32.71701874 15.85810089 -32.73423767 14.73658752 C-32.75418289 13.73562546 -32.77412811 12.73466339 -32.79467773 11.70336914 C-32.81022202 10.81734512 -32.8257663 9.93132111 -32.84178162 9.01844788 C-32.77981325 7.00362459 -32.77981325 7.00362459 -34 6 C-35.34747084 5.76924918 -36.70377565 5.58846937 -38.0625 5.4375 C-39.361875 5.293125 -40.66125 5.14875 -42 5 C-42 3.68 -42 2.36 -42 1 C-34.74 1 -27.48 1 -20 1 C-19.67 3.97 -19.34 6.94 -19 10 C-18.54109375 9.44570312 -18.0821875 8.89140625 -17.609375 8.3203125 C-16.99578125 7.59585938 -16.3821875 6.87140625 -15.75 6.125 C-15.14671875 5.40570313 -14.5434375 4.68640625 -13.921875 3.9453125 C-9.95231924 -0.07265247 -5.55049861 -1.03538147 0 0 Z " fill="#090909" transform="translate(681,199)"/>
<path d="M0 0 C3.96 0 7.92 0 12 0 C12 4.95 12 9.9 12 15 C17.28 15 22.56 15 28 15 C28 16.65 28 18.3 28 20 C22.72 20 17.44 20 12 20 C12.0442189 26.01453252 12.11412294 32.02802189 12.20751953 38.04199219 C12.23569066 40.08650395 12.25692435 42.13112384 12.27099609 44.17578125 C12.29247887 47.12035322 12.3391569 50.06363041 12.390625 53.0078125 C12.39185364 53.9174173 12.39308228 54.82702209 12.39434814 55.76419067 C12.52453003 61.44478815 13.27045802 64.64305028 17 69 C19.29629994 70.14814997 21.07698086 70.30769809 23.625 70.5625 C24.44226563 70.64628906 25.25953125 70.73007813 26.1015625 70.81640625 C26.72804688 70.87699219 27.35453125 70.93757813 28 71 C28 72.32 28 73.64 28 75 C24.79215279 75.14622024 21.58517039 75.23436651 18.375 75.3125 C17.47136719 75.35439453 16.56773437 75.39628906 15.63671875 75.43945312 C11.35593943 75.51756954 8.00390919 75.53721129 4.4765625 72.91796875 C-0.56939866 66.97264859 -0.28029129 60.35583206 -0.1953125 52.91015625 C-0.1924826 51.96563095 -0.18965271 51.02110565 -0.18673706 50.04795837 C-0.17560684 47.05267276 -0.1505156 44.05769414 -0.125 41.0625 C-0.11496095 39.0227908 -0.10583672 36.98307688 -0.09765625 34.94335938 C-0.07569096 29.9621226 -0.04121076 24.98111322 0 20 C-3.3 20 -6.6 20 -10 20 C-10 18.35 -10 16.7 -10 15 C-6.7 15 -3.4 15 0 15 C0 10.05 0 5.1 0 0 Z " fill="#050505" transform="translate(703,185)"/>
<path d="M0 0 C3.17625 -0.0825 6.3525 -0.165 9.625 -0.25 C10.6145166 -0.28641602 11.6040332 -0.32283203 12.62353516 -0.36035156 C18.2737597 -0.43116497 21.55714692 0.16109726 26 4 C30.7841075 9.66539046 30.53799303 15.21290546 30.31640625 22.4609375 C29.79282472 28.31729392 28.48172571 31.90610858 24 35.875 C16.00951602 41.53492615 12.29875129 39 0 39 C0 26.13 0 13.26 0 0 Z " fill="#FFFAFD" transform="translate(230,181)"/>
<path d="M0 0 C18 0 18 0 25 4 C30.03310306 10.49005394 30.75256695 15.99352386 30 24 C28.72186793 28.98749362 27.11385717 32.8582964 23.5 36.5625 C16.00320281 40.87315839 9.20593111 39 0 39 C0 26.13 0 13.26 0 0 Z " fill="#FCFCFC" transform="translate(520,181)"/>
<path d="M0 0 C1.3763009 14.00088819 1.3763009 14.00088819 -1.93359375 18.80859375 C-7.72100994 23.85522066 -11.66110365 25.44205814 -19.29296875 25.33203125 C-22 25 -22 25 -25.125 23.0625 C-27.57630607 19.05870009 -28.30628348 15.67933095 -28 11 C-26.5656048 7.70089103 -24.73322471 5.3155634 -22 3 C-14.80320188 0.33817056 -7.61790813 -0.45505203 0 0 Z " fill="#F8F8F8" transform="translate(779,229)"/>
</svg>
